<svg width="1024" height="768" viewBox="0 0 1024 768" fill="none" xmlns="http://www.w3.org/2000/svg">
<g clip-path="url(#clip0)">
<rect width="1024" height="768" fill="url(#paint0_linear)" style="mix-blend-mode:darken"/>
<path opacity="0.3" d="M476.333 384.333C477.467 384.333 478.567 384.433 479.667 384.6V364.333H426.333V404.333H453.267C454.9 393.033 464.567 384.333 476.333 384.333Z" fill="black"/>
<path d="M470.8 417.667L459 405.867L463.7 401.167L470.767 408.233L484.9 394.1L489.667 398.8L470.8 417.667ZM453.267 404.333H426.333V364.333H479.667V384.6C482.033 384.933 484.267 385.633 486.333 386.6V364.333C486.333 360.667 483.333 357.667 479.667 357.667H426.333C422.667 357.667 419.667 360.667 419.667 364.333V424.333L433 411H453C453 410.533 453.067 410.1 453.1 409.667C453.033 409 453 408.333 453 407.667C453 406.533 453.1 405.433 453.267 404.333Z" fill="black"/>
<path opacity="0.3" d="M329.333 457.333C330.467 457.333 331.567 457.433 332.667 457.6V437.333H279.333V477.333H306.267C307.9 466.033 317.567 457.333 329.333 457.333Z" fill="black"/>
<path d="M323.8 490.667L312 478.867L316.7 474.167L323.767 481.233L337.9 467.1L342.667 471.8L323.8 490.667ZM306.267 477.333H279.333V437.333H332.667V457.6C335.033 457.933 337.267 458.633 339.333 459.6V437.333C339.333 433.667 336.333 430.667 332.667 430.667H279.333C275.667 430.667 272.667 433.667 272.667 437.333V497.333L286 484H306C306 483.533 306.067 483.1 306.1 482.667C306.033 482 306 481.333 306 480.667C306 479.533 306.1 478.433 306.267 477.333Z" fill="black"/>
<path opacity="0.3" d="M633.333 265.333C634.467 265.333 635.567 265.433 636.667 265.6V245.333H583.333V285.333H610.267C611.9 274.033 621.567 265.333 633.333 265.333Z" fill="black"/>
<path d="M627.8 298.667L616 286.867L620.7 282.167L627.767 289.233L641.9 275.1L646.667 279.8L627.8 298.667ZM610.267 285.333H583.333V245.333H636.667V265.6C639.033 265.933 641.267 266.633 643.333 267.6V245.333C643.333 241.667 640.333 238.667 636.667 238.667H583.333C579.667 238.667 576.667 241.667 576.667 245.333V305.333L590 292H610C610 291.533 610.067 291.1 610.1 290.667C610.033 290 610 289.333 610 288.667C610 287.533 610.1 286.433 610.267 285.333Z" fill="black"/>
<path opacity="0.3" d="M535.333 554.333C536.467 554.333 537.567 554.433 538.667 554.6V534.333H485.333V574.333H512.267C513.9 563.033 523.567 554.333 535.333 554.333Z" fill="black"/>
<path d="M529.8 587.667L518 575.867L522.7 571.167L529.767 578.233L543.9 564.1L548.667 568.8L529.8 587.667ZM512.267 574.333H485.333V534.333H538.667V554.6C541.033 554.933 543.267 555.633 545.333 556.6V534.333C545.333 530.667 542.333 527.667 538.667 527.667H485.333C481.667 527.667 478.667 530.667 478.667 534.333V594.333L492 581H512C512 580.533 512.067 580.1 512.1 579.667C512.033 579 512 578.333 512 577.667C512 576.533 512.1 575.433 512.267 574.333Z" fill="black"/>
<path opacity="0.3" d="M781.333 437.333C782.467 437.333 783.567 437.433 784.667 437.6V417.333H731.333V457.333H758.267C759.9 446.033 769.567 437.333 781.333 437.333Z" fill="black"/>
<path d="M775.8 470.667L764 458.867L768.7 454.167L775.767 461.233L789.9 447.1L794.667 451.8L775.8 470.667ZM758.267 457.333H731.333V417.333H784.667V437.6C787.033 437.933 789.267 438.633 791.333 439.6V417.333C791.333 413.667 788.333 410.667 784.667 410.667H731.333C727.667 410.667 724.667 413.667 724.667 417.333V477.333L738 464H758C758 463.533 758.067 463.1 758.1 462.667C758.033 462 758 461.333 758 460.667C758 459.533 758.1 458.433 758.267 457.333Z" fill="black"/>
<path d="M585.914 366.484C586.375 366.484 586.836 366.5 587.289 366.523C585.383 356.469 574.922 348.781 562.297 348.781C548.328 348.781 537 358.203 537 369.828C537 376.164 540.406 381.875 545.742 385.734C545.962 385.89 546.142 386.096 546.265 386.335C546.389 386.574 546.454 386.84 546.453 387.109C546.453 387.297 546.414 387.469 546.367 387.648C545.937 389.234 545.258 391.773 545.227 391.891C545.172 392.094 545.094 392.297 545.094 392.508C545.094 392.969 545.469 393.352 545.937 393.352C546.117 393.352 546.266 393.281 546.422 393.195L551.961 390C552.375 389.758 552.82 389.609 553.305 389.609C553.555 389.609 553.805 389.648 554.047 389.719C556.633 390.461 559.422 390.875 562.305 390.875C562.773 390.875 563.234 390.867 563.695 390.844C563.141 389.203 562.844 387.477 562.844 385.688C562.844 375.078 573.172 366.484 585.914 366.484V366.484ZM570.734 359.727C572.594 359.727 574.109 361.234 574.109 363.094C574.109 364.953 572.602 366.461 570.734 366.461C568.875 366.461 567.359 364.953 567.359 363.094C567.359 361.234 568.875 359.727 570.734 359.727ZM553.867 366.461C552.008 366.461 550.492 364.953 550.492 363.094C550.492 361.234 552 359.727 553.867 359.727C555.734 359.727 557.242 361.234 557.242 363.094C557.242 364.953 555.727 366.461 553.867 366.461ZM599.711 398.93C604.156 395.711 606.992 390.961 606.992 385.672C606.992 375.984 597.555 368.133 585.906 368.133C574.266 368.133 564.82 375.984 564.82 385.672C564.82 395.359 574.258 403.211 585.906 403.211C588.312 403.211 590.641 402.867 592.789 402.25C592.992 402.188 593.195 402.156 593.406 402.156C593.812 402.156 594.18 402.281 594.523 402.477L599.141 405.133C599.273 405.211 599.398 405.266 599.547 405.266C599.639 405.266 599.731 405.249 599.817 405.214C599.903 405.179 599.981 405.128 600.047 405.063C600.112 404.997 600.163 404.919 600.198 404.833C600.233 404.747 600.251 404.655 600.25 404.563C600.25 404.391 600.18 404.219 600.141 404.047C600.117 403.953 599.547 401.836 599.188 400.508C599.148 400.359 599.117 400.211 599.117 400.063C599.125 399.602 599.359 399.188 599.711 398.93V398.93ZM578.891 382.875C577.336 382.875 576.078 381.617 576.078 380.07C576.078 378.523 577.336 377.266 578.891 377.266C580.445 377.266 581.703 378.523 581.703 380.07C581.703 381.617 580.438 382.875 578.891 382.875ZM592.945 382.875C591.391 382.875 590.133 381.617 590.133 380.07C590.133 378.523 591.391 377.266 592.945 377.266C594.5 377.266 595.758 378.523 595.758 380.07C595.754 380.814 595.456 381.527 594.929 382.052C594.403 382.578 593.689 382.873 592.945 382.875V382.875Z" fill="black"/>
<path d="M700.497 350.7C699.697 360.5 691.397 368.1 681.497 368H670.997L650.997 381V368L670.997 355H681.497C684.597 355.1 687.197 352.8 687.597 349.7C688.197 339.7 688.197 329.7 687.397 319.7C687.197 316.9 684.897 314.8 682.197 314.6C675.397 314.3 668.197 314 660.997 314C653.797 314 646.597 314.2 639.797 314.7C636.997 314.9 634.797 317 634.597 319.8C633.897 329.8 633.797 339.8 634.397 349.8C634.697 352.9 637.397 355.1 640.497 355H650.997V368H640.497C635.726 368.063 631.111 366.311 627.583 363.099C624.056 359.887 621.88 355.455 621.497 350.7C620.797 340 620.897 329.4 621.697 318.7C622.063 314.263 624.012 310.105 627.187 306.985C630.363 303.864 634.554 301.989 638.997 301.7C645.997 301.2 653.497 301 660.997 301C668.497 301 675.997 301.2 683.097 301.8C687.539 302.089 691.731 303.964 694.906 307.085C698.082 310.205 700.03 314.363 700.397 318.8C701.097 329.4 701.197 340.1 700.497 350.7V350.7Z" fill="black"/>
<path d="M889.497 420.7C888.697 430.5 880.397 438.1 870.497 438H859.997L839.997 451V438L859.997 425H870.497C873.597 425.1 876.197 422.8 876.597 419.7C877.197 409.7 877.197 399.7 876.397 389.7C876.197 386.9 873.897 384.8 871.197 384.6C864.397 384.3 857.197 384 849.997 384C842.797 384 835.597 384.2 828.797 384.7C825.997 384.9 823.797 387 823.597 389.8C822.897 399.8 822.797 409.8 823.397 419.8C823.697 422.9 826.397 425.1 829.497 425H839.997V438H829.497C824.726 438.063 820.111 436.311 816.583 433.099C813.056 429.887 810.88 425.455 810.497 420.7C809.797 410 809.897 399.4 810.697 388.7C811.063 384.263 813.012 380.105 816.187 376.985C819.363 373.864 823.554 371.989 827.997 371.7C834.997 371.2 842.497 371 849.997 371C857.497 371 864.997 371.2 872.097 371.8C876.539 372.089 880.731 373.964 883.906 377.085C887.082 380.205 889.03 384.363 889.397 388.8C890.097 399.4 890.197 410.1 889.497 420.7V420.7Z" fill="black"/>
<path d="M538.914 214.484C539.375 214.484 539.836 214.5 540.289 214.523C538.383 204.469 527.922 196.781 515.297 196.781C501.328 196.781 490 206.203 490 217.828C490 224.164 493.406 229.875 498.742 233.734C498.962 233.89 499.142 234.096 499.265 234.335C499.389 234.574 499.454 234.84 499.453 235.109C499.453 235.297 499.414 235.469 499.367 235.648C498.937 237.234 498.258 239.773 498.227 239.891C498.172 240.094 498.094 240.297 498.094 240.508C498.094 240.969 498.469 241.352 498.937 241.352C499.117 241.352 499.266 241.281 499.422 241.195L504.961 238C505.375 237.758 505.82 237.609 506.305 237.609C506.555 237.609 506.805 237.648 507.047 237.719C509.633 238.461 512.422 238.875 515.305 238.875C515.773 238.875 516.234 238.867 516.695 238.844C516.141 237.203 515.844 235.477 515.844 233.688C515.844 223.078 526.172 214.484 538.914 214.484V214.484ZM523.734 207.727C525.594 207.727 527.109 209.234 527.109 211.094C527.109 212.953 525.602 214.461 523.734 214.461C521.875 214.461 520.359 212.953 520.359 211.094C520.359 209.234 521.875 207.727 523.734 207.727ZM506.867 214.461C505.008 214.461 503.492 212.953 503.492 211.094C503.492 209.234 505 207.727 506.867 207.727C508.734 207.727 510.242 209.234 510.242 211.094C510.242 212.953 508.727 214.461 506.867 214.461ZM552.711 246.93C557.156 243.711 559.992 238.961 559.992 233.672C559.992 223.984 550.555 216.133 538.906 216.133C527.266 216.133 517.82 223.984 517.82 233.672C517.82 243.359 527.258 251.211 538.906 251.211C541.312 251.211 543.641 250.867 545.789 250.25C545.992 250.188 546.195 250.156 546.406 250.156C546.812 250.156 547.18 250.281 547.523 250.477L552.141 253.133C552.273 253.211 552.398 253.266 552.547 253.266C552.639 253.266 552.731 253.249 552.817 253.214C552.903 253.179 552.981 253.128 553.047 253.063C553.112 252.997 553.163 252.919 553.198 252.833C553.233 252.747 553.251 252.655 553.25 252.563C553.25 252.391 553.18 252.219 553.141 252.047C553.117 251.953 552.547 249.836 552.188 248.508C552.148 248.359 552.117 248.211 552.117 248.063C552.125 247.602 552.359 247.188 552.711 246.93V246.93ZM531.891 230.875C530.336 230.875 529.078 229.617 529.078 228.07C529.078 226.523 530.336 225.266 531.891 225.266C533.445 225.266 534.703 226.523 534.703 228.07C534.703 229.617 533.438 230.875 531.891 230.875ZM545.945 230.875C544.391 230.875 543.133 229.617 543.133 228.07C543.133 226.523 544.391 225.266 545.945 225.266C547.5 225.266 548.758 226.523 548.758 228.07C548.754 228.814 548.456 229.527 547.929 230.052C547.403 230.578 546.689 230.873 545.945 230.875V230.875Z" fill="black"/>
<path d="M704.914 493.484C705.375 493.484 705.836 493.5 706.289 493.523C704.383 483.469 693.922 475.781 681.297 475.781C667.328 475.781 656 485.203 656 496.828C656 503.164 659.406 508.875 664.742 512.734C664.962 512.89 665.142 513.096 665.265 513.335C665.389 513.574 665.454 513.84 665.453 514.109C665.453 514.297 665.414 514.469 665.367 514.648C664.937 516.234 664.258 518.773 664.227 518.891C664.172 519.094 664.094 519.297 664.094 519.508C664.094 519.969 664.469 520.352 664.937 520.352C665.117 520.352 665.266 520.281 665.422 520.195L670.961 517C671.375 516.758 671.82 516.609 672.305 516.609C672.555 516.609 672.805 516.648 673.047 516.719C675.633 517.461 678.422 517.875 681.305 517.875C681.773 517.875 682.234 517.867 682.695 517.844C682.141 516.203 681.844 514.477 681.844 512.688C681.844 502.078 692.172 493.484 704.914 493.484V493.484ZM689.734 486.727C691.594 486.727 693.109 488.234 693.109 490.094C693.109 491.953 691.602 493.461 689.734 493.461C687.875 493.461 686.359 491.953 686.359 490.094C686.359 488.234 687.875 486.727 689.734 486.727ZM672.867 493.461C671.008 493.461 669.492 491.953 669.492 490.094C669.492 488.234 671 486.727 672.867 486.727C674.734 486.727 676.242 488.234 676.242 490.094C676.242 491.953 674.727 493.461 672.867 493.461ZM718.711 525.93C723.156 522.711 725.992 517.961 725.992 512.672C725.992 502.984 716.555 495.133 704.906 495.133C693.266 495.133 683.82 502.984 683.82 512.672C683.82 522.359 693.258 530.211 704.906 530.211C707.312 530.211 709.641 529.867 711.789 529.25C711.992 529.188 712.195 529.156 712.406 529.156C712.812 529.156 713.18 529.281 713.523 529.477L718.141 532.133C718.273 532.211 718.398 532.266 718.547 532.266C718.639 532.266 718.731 532.249 718.817 532.214C718.903 532.179 718.981 532.128 719.047 532.063C719.112 531.997 719.163 531.919 719.198 531.833C719.233 531.747 719.251 531.655 719.25 531.563C719.25 531.391 719.18 531.219 719.141 531.047C719.117 530.953 718.547 528.836 718.188 527.508C718.148 527.359 718.117 527.211 718.117 527.063C718.125 526.602 718.359 526.188 718.711 525.93V525.93ZM697.891 509.875C696.336 509.875 695.078 508.617 695.078 507.07C695.078 505.523 696.336 504.266 697.891 504.266C699.445 504.266 700.703 505.523 700.703 507.07C700.703 508.617 699.438 509.875 697.891 509.875ZM711.945 509.875C710.391 509.875 709.133 508.617 709.133 507.07C709.133 505.523 710.391 504.266 711.945 504.266C713.5 504.266 714.758 505.523 714.758 507.07C714.754 507.814 714.456 508.527 713.929 509.052C713.403 509.578 712.689 509.873 711.945 509.875V509.875Z" fill="black"/>
<path d="M493.914 603.484C494.375 603.484 494.836 603.5 495.289 603.523C493.383 593.469 482.922 585.781 470.297 585.781C456.328 585.781 445 595.203 445 606.828C445 613.164 448.406 618.875 453.742 622.734C453.962 622.89 454.142 623.096 454.265 623.335C454.389 623.574 454.454 623.84 454.453 624.109C454.453 624.297 454.414 624.469 454.367 624.648C453.937 626.234 453.258 628.773 453.227 628.891C453.172 629.094 453.094 629.297 453.094 629.508C453.094 629.969 453.469 630.352 453.937 630.352C454.117 630.352 454.266 630.281 454.422 630.195L459.961 627C460.375 626.758 460.82 626.609 461.305 626.609C461.555 626.609 461.805 626.648 462.047 626.719C464.633 627.461 467.422 627.875 470.305 627.875C470.773 627.875 471.234 627.867 471.695 627.844C471.141 626.203 470.844 624.477 470.844 622.688C470.844 612.078 481.172 603.484 493.914 603.484V603.484ZM478.734 596.727C480.594 596.727 482.109 598.234 482.109 600.094C482.109 601.953 480.602 603.461 478.734 603.461C476.875 603.461 475.359 601.953 475.359 600.094C475.359 598.234 476.875 596.727 478.734 596.727ZM461.867 603.461C460.008 603.461 458.492 601.953 458.492 600.094C458.492 598.234 460 596.727 461.867 596.727C463.734 596.727 465.242 598.234 465.242 600.094C465.242 601.953 463.727 603.461 461.867 603.461ZM507.711 635.93C512.156 632.711 514.992 627.961 514.992 622.672C514.992 612.984 505.555 605.133 493.906 605.133C482.266 605.133 472.82 612.984 472.82 622.672C472.82 632.359 482.258 640.211 493.906 640.211C496.312 640.211 498.641 639.867 500.789 639.25C500.992 639.188 501.195 639.156 501.406 639.156C501.812 639.156 502.18 639.281 502.523 639.477L507.141 642.133C507.273 642.211 507.398 642.266 507.547 642.266C507.639 642.266 507.731 642.249 507.817 642.214C507.903 642.179 507.981 642.128 508.047 642.063C508.112 641.997 508.163 641.919 508.198 641.833C508.233 641.747 508.251 641.655 508.25 641.563C508.25 641.391 508.18 641.219 508.141 641.047C508.117 640.953 507.547 638.836 507.188 637.508C507.148 637.359 507.117 637.211 507.117 637.063C507.125 636.602 507.359 636.188 507.711 635.93V635.93ZM486.891 619.875C485.336 619.875 484.078 618.617 484.078 617.07C484.078 615.523 485.336 614.266 486.891 614.266C488.445 614.266 489.703 615.523 489.703 617.07C489.703 618.617 488.438 619.875 486.891 619.875ZM500.945 619.875C499.391 619.875 498.133 618.617 498.133 617.07C498.133 615.523 499.391 614.266 500.945 614.266C502.5 614.266 503.758 615.523 503.758 617.07C503.754 617.814 503.456 618.527 502.929 619.052C502.403 619.578 501.689 619.873 500.945 619.875V619.875Z" fill="black"/>
<path d="M107.667 372.333C120.237 372.333 126.523 372.333 130.427 368.427C134.333 364.523 134.333 358.237 134.333 345.667C134.333 333.097 134.333 326.81 130.427 322.907C126.523 319 120.237 319 107.667 319H94.3333C81.7633 319 75.4767 319 71.5733 322.907C67.6667 326.81 67.6667 333.097 67.6667 345.667C67.6667 358.237 67.6667 364.523 71.5733 368.427C73.75 370.607 76.6667 371.57 81 371.993" stroke="black" stroke-width="2" stroke-linecap="round" stroke-linejoin="round"/>
<path d="M101 345.667V347.333" stroke="black" stroke-width="2" stroke-linecap="round"/>
<path d="M87.6667 345.667V347.333" stroke="black" stroke-width="2" stroke-linecap="round"/>
<path d="M114.333 345.667V347.333" stroke="black" stroke-width="2" stroke-linecap="round"/>
<path d="M107.667 372.333C103.547 372.333 99.0067 374 94.8633 376.15C88.2033 379.607 84.8733 381.337 83.2333 380.233C81.5933 379.133 81.9033 375.717 82.5267 368.887L82.6667 367.333" stroke="black" stroke-width="2" stroke-linecap="round"/>
<path d="M31.21 306.667H78.6667V266.667H25.3333V311.283L31.21 306.667ZM33.5167 313.333L18.6667 325V263.333C18.6667 262.449 19.0179 261.601 19.643 260.976C20.2681 260.351 21.116 260 22 260H82C82.8841 260 83.7319 260.351 84.357 260.976C84.9822 261.601 85.3333 262.449 85.3333 263.333V310C85.3333 310.884 84.9822 311.732 84.357 312.357C83.7319 312.982 82.8841 313.333 82 313.333H33.5167Z" fill="black"/>
<path d="M579.21 199.667H626.667V159.667H573.333V204.283L579.21 199.667ZM581.517 206.333L566.667 218V156.333C566.667 155.449 567.018 154.601 567.643 153.976C568.268 153.351 569.116 153 570 153H630C630.884 153 631.732 153.351 632.357 153.976C632.982 154.601 633.333 155.449 633.333 156.333V203C633.333 203.884 632.982 204.732 632.357 205.357C631.732 205.982 630.884 206.333 630 206.333H581.517Z" fill="black"/>
<path d="M803.21 510.667H850.667V470.667H797.333V515.283L803.21 510.667ZM805.517 517.333L790.667 529V467.333C790.667 466.449 791.018 465.601 791.643 464.976C792.268 464.351 793.116 464 794 464H854C854.884 464 855.732 464.351 856.357 464.976C856.982 465.601 857.333 466.449 857.333 467.333V514C857.333 514.884 856.982 515.732 856.357 516.357C855.732 516.982 854.884 517.333 854 517.333H805.517Z" fill="black"/>
<path d="M680.21 600.667H727.667V560.667H674.333V605.283L680.21 600.667ZM682.517 607.333L667.667 619V557.333C667.667 556.449 668.018 555.601 668.643 554.976C669.268 554.351 670.116 554 671 554H731C731.884 554 732.732 554.351 733.357 554.976C733.982 555.601 734.333 556.449 734.333 557.333V604C734.333 604.884 733.982 605.732 733.357 606.357C732.732 606.982 731.884 607.333 731 607.333H682.517Z" fill="black"/>
<path d="M626.21 436.667H673.667V396.667H620.333V441.283L626.21 436.667ZM628.517 443.333L613.667 455V393.333C613.667 392.449 614.018 391.601 614.643 390.976C615.268 390.351 616.116 390 617 390H677C677.884 390 678.732 390.351 679.357 390.976C679.982 391.601 680.333 392.449 680.333 393.333V440C680.333 440.884 679.982 441.732 679.357 442.357C678.732 442.982 677.884 443.333 677 443.333H628.517Z" fill="black"/>
<path d="M629.667 555.333C642.237 555.333 648.523 555.333 652.427 551.427C656.333 547.523 656.333 541.237 656.333 528.667C656.333 516.097 656.333 509.81 652.427 505.907C648.523 502 642.237 502 629.667 502H616.333C603.763 502 597.477 502 593.573 505.907C589.667 509.81 589.667 516.097 589.667 528.667C589.667 541.237 589.667 547.523 593.573 551.427C595.75 553.607 598.667 554.57 603 554.993" stroke="black" stroke-width="2" stroke-linecap="round" stroke-linejoin="round"/>
<path d="M623 528.667V530.333" stroke="black" stroke-width="2" stroke-linecap="round"/>
<path d="M609.667 528.667V530.333" stroke="black" stroke-width="2" stroke-linecap="round"/>
<path d="M636.333 528.667V530.333" stroke="black" stroke-width="2" stroke-linecap="round"/>
<path d="M629.667 555.333C625.547 555.333 621.007 557 616.863 559.15C610.203 562.607 606.873 564.337 605.233 563.233C603.593 562.133 603.903 558.717 604.527 551.887L604.667 550.333" stroke="black" stroke-width="2" stroke-linecap="round"/>
<path d="M983.667 276.333C996.237 276.333 1002.52 276.333 1006.43 272.427C1010.33 268.523 1010.33 262.237 1010.33 249.667C1010.33 237.097 1010.33 230.81 1006.43 226.907C1002.52 223 996.237 223 983.667 223H970.333C957.763 223 951.477 223 947.573 226.907C943.667 230.81 943.667 237.097 943.667 249.667C943.667 262.237 943.667 268.523 947.573 272.427C949.75 274.607 952.667 275.57 957 275.993" stroke="black" stroke-width="2" stroke-linecap="round" stroke-linejoin="round"/>
<path d="M977 249.667V251.333" stroke="black" stroke-width="2" stroke-linecap="round"/>
<path d="M963.667 249.667V251.333" stroke="black" stroke-width="2" stroke-linecap="round"/>
<path d="M990.333 249.667V251.333" stroke="black" stroke-width="2" stroke-linecap="round"/>
<path d="M983.667 276.333C979.547 276.333 975.007 278 970.863 280.15C964.203 283.607 960.873 285.337 959.233 284.233C957.593 283.133 957.903 279.717 958.527 272.887L958.667 271.333" stroke="black" stroke-width="2" stroke-linecap="round"/>
<path d="M128.667 487.333C141.237 487.333 147.523 487.333 151.427 483.427C155.333 479.523 155.333 473.237 155.333 460.667C155.333 448.097 155.333 441.81 151.427 437.907C147.523 434 141.237 434 128.667 434H115.333C102.763 434 96.4767 434 92.5733 437.907C88.6667 441.81 88.6667 448.097 88.6667 460.667C88.6667 473.237 88.6667 479.523 92.5733 483.427C94.75 485.607 97.6667 486.57 102 486.993" stroke="black" stroke-width="2" stroke-linecap="round" stroke-linejoin="round"/>
<path d="M122 460.667V462.333" stroke="black" stroke-width="2" stroke-linecap="round"/>
<path d="M108.667 460.667V462.333" stroke="black" stroke-width="2" stroke-linecap="round"/>
<path d="M135.333 460.667V462.333" stroke="black" stroke-width="2" stroke-linecap="round"/>
<path d="M128.667 487.333C124.547 487.333 120.007 489 115.863 491.15C109.203 494.607 105.873 496.337 104.233 495.233C102.593 494.133 102.903 490.717 103.527 483.887L103.667 482.333" stroke="black" stroke-width="2" stroke-linecap="round"/>
<path d="M299.667 292.333C312.237 292.333 318.523 292.333 322.427 288.427C326.333 284.523 326.333 278.237 326.333 265.667C326.333 253.097 326.333 246.81 322.427 242.907C318.523 239 312.237 239 299.667 239H286.333C273.763 239 267.477 239 263.573 242.907C259.667 246.81 259.667 253.097 259.667 265.667C259.667 278.237 259.667 284.523 263.573 288.427C265.75 290.607 268.667 291.57 273 291.993" stroke="black" stroke-width="2" stroke-linecap="round" stroke-linejoin="round"/>
<path d="M293 265.667V267.333" stroke="black" stroke-width="2" stroke-linecap="round"/>
<path d="M279.667 265.667V267.333" stroke="black" stroke-width="2" stroke-linecap="round"/>
<path d="M306.333 265.667V267.333" stroke="black" stroke-width="2" stroke-linecap="round"/>
<path d="M299.667 292.333C295.547 292.333 291.007 294 286.863 296.15C280.203 299.607 276.873 301.337 275.233 300.233C273.593 299.133 273.903 295.717 274.527 288.887L274.667 287.333" stroke="black" stroke-width="2" stroke-linecap="round"/>
<path d="M490 136C490 155.33 472.09 171 450 171C446.038 171.005 442.093 170.491 438.265 169.47C435.345 170.95 428.64 173.79 417.36 175.64C416.36 175.8 415.6 174.76 415.995 173.83C417.765 169.65 419.365 164.08 419.845 159C413.72 152.85 410 144.8 410 136C410 116.67 427.91 101 450 101C472.09 101 490 116.67 490 136ZM432.5 121C431.837 121 431.201 121.263 430.732 121.732C430.263 122.201 430 122.837 430 123.5C430 124.163 430.263 124.799 430.732 125.268C431.201 125.737 431.837 126 432.5 126H467.5C468.163 126 468.799 125.737 469.268 125.268C469.737 124.799 470 124.163 470 123.5C470 122.837 469.737 122.201 469.268 121.732C468.799 121.263 468.163 121 467.5 121H432.5ZM432.5 133.5C431.837 133.5 431.201 133.763 430.732 134.232C430.263 134.701 430 135.337 430 136C430 136.663 430.263 137.299 430.732 137.768C431.201 138.237 431.837 138.5 432.5 138.5H467.5C468.163 138.5 468.799 138.237 469.268 137.768C469.737 137.299 470 136.663 470 136C470 135.337 469.737 134.701 469.268 134.232C468.799 133.763 468.163 133.5 467.5 133.5H432.5ZM432.5 146C431.837 146 431.201 146.263 430.732 146.732C430.263 147.201 430 147.837 430 148.5C430 149.163 430.263 149.799 430.732 150.268C431.201 150.737 431.837 151 432.5 151H452.5C453.163 151 453.799 150.737 454.268 150.268C454.737 149.799 455 149.163 455 148.5C455 147.837 454.737 147.201 454.268 146.732C453.799 146.263 453.163 146 452.5 146H432.5Z" fill="black"/>
<path d="M449 290C449 309.33 431.09 325 409 325C405.038 325.005 401.093 324.491 397.265 323.47C394.345 324.95 387.64 327.79 376.36 329.64C375.36 329.8 374.6 328.76 374.995 327.83C376.765 323.65 378.365 318.08 378.845 313C372.72 306.85 369 298.8 369 290C369 270.67 386.91 255 409 255C431.09 255 449 270.67 449 290ZM391.5 275C390.837 275 390.201 275.263 389.732 275.732C389.263 276.201 389 276.837 389 277.5C389 278.163 389.263 278.799 389.732 279.268C390.201 279.737 390.837 280 391.5 280H426.5C427.163 280 427.799 279.737 428.268 279.268C428.737 278.799 429 278.163 429 277.5C429 276.837 428.737 276.201 428.268 275.732C427.799 275.263 427.163 275 426.5 275H391.5ZM391.5 287.5C390.837 287.5 390.201 287.763 389.732 288.232C389.263 288.701 389 289.337 389 290C389 290.663 389.263 291.299 389.732 291.768C390.201 292.237 390.837 292.5 391.5 292.5H426.5C427.163 292.5 427.799 292.237 428.268 291.768C428.737 291.299 429 290.663 429 290C429 289.337 428.737 288.701 428.268 288.232C427.799 287.763 427.163 287.5 426.5 287.5H391.5ZM391.5 300C390.837 300 390.201 300.263 389.732 300.732C389.263 301.201 389 301.837 389 302.5C389 303.163 389.263 303.799 389.732 304.268C390.201 304.737 390.837 305 391.5 305H411.5C412.163 305 412.799 304.737 413.268 304.268C413.737 303.799 414 303.163 414 302.5C414 301.837 413.737 301.201 413.268 300.732C412.799 300.263 412.163 300 411.5 300H391.5Z" fill="black"/>
<path d="M663 626C663 645.33 645.09 661 623 661C619.038 661.005 615.093 660.491 611.265 659.47C608.345 660.95 601.64 663.79 590.36 665.64C589.36 665.8 588.6 664.76 588.995 663.83C590.765 659.65 592.365 654.08 592.845 649C586.72 642.85 583 634.8 583 626C583 606.67 600.91 591 623 591C645.09 591 663 606.67 663 626ZM605.5 611C604.837 611 604.201 611.263 603.732 611.732C603.263 612.201 603 612.837 603 613.5C603 614.163 603.263 614.799 603.732 615.268C604.201 615.737 604.837 616 605.5 616H640.5C641.163 616 641.799 615.737 642.268 615.268C642.737 614.799 643 614.163 643 613.5C643 612.837 642.737 612.201 642.268 611.732C641.799 611.263 641.163 611 640.5 611H605.5ZM605.5 623.5C604.837 623.5 604.201 623.763 603.732 624.232C603.263 624.701 603 625.337 603 626C603 626.663 603.263 627.299 603.732 627.768C604.201 628.237 604.837 628.5 605.5 628.5H640.5C641.163 628.5 641.799 628.237 642.268 627.768C642.737 627.299 643 626.663 643 626C643 625.337 642.737 624.701 642.268 624.232C641.799 623.763 641.163 623.5 640.5 623.5H605.5ZM605.5 636C604.837 636 604.201 636.263 603.732 636.732C603.263 637.201 603 637.837 603 638.5C603 639.163 603.263 639.799 603.732 640.268C604.201 640.737 604.837 641 605.5 641H625.5C626.163 641 626.799 640.737 627.268 640.268C627.737 639.799 628 639.163 628 638.5C628 637.837 627.737 637.201 627.268 636.732C626.799 636.263 626.163 636 625.5 636H605.5Z" fill="black"/>
<path d="M705.914 702.484C706.375 702.484 706.836 702.5 707.289 702.523C705.383 692.469 694.922 684.781 682.297 684.781C668.328 684.781 657 694.203 657 705.828C657 712.164 660.406 717.875 665.742 721.734C665.962 721.89 666.142 722.096 666.265 722.335C666.389 722.574 666.454 722.84 666.453 723.109C666.453 723.297 666.414 723.469 666.367 723.648C665.937 725.234 665.258 727.773 665.227 727.891C665.172 728.094 665.094 728.297 665.094 728.508C665.094 728.969 665.469 729.352 665.937 729.352C666.117 729.352 666.266 729.281 666.422 729.195L671.961 726C672.375 725.758 672.82 725.609 673.305 725.609C673.555 725.609 673.805 725.648 674.047 725.719C676.633 726.461 679.422 726.875 682.305 726.875C682.773 726.875 683.234 726.867 683.695 726.844C683.141 725.203 682.844 723.477 682.844 721.688C682.844 711.078 693.172 702.484 705.914 702.484V702.484ZM690.734 695.727C692.594 695.727 694.109 697.234 694.109 699.094C694.109 700.953 692.602 702.461 690.734 702.461C688.875 702.461 687.359 700.953 687.359 699.094C687.359 697.234 688.875 695.727 690.734 695.727ZM673.867 702.461C672.008 702.461 670.492 700.953 670.492 699.094C670.492 697.234 672 695.727 673.867 695.727C675.734 695.727 677.242 697.234 677.242 699.094C677.242 700.953 675.727 702.461 673.867 702.461ZM719.711 734.93C724.156 731.711 726.992 726.961 726.992 721.672C726.992 711.984 717.555 704.133 705.906 704.133C694.266 704.133 684.82 711.984 684.82 721.672C684.82 731.359 694.258 739.211 705.906 739.211C708.312 739.211 710.641 738.867 712.789 738.25C712.992 738.188 713.195 738.156 713.406 738.156C713.812 738.156 714.18 738.281 714.523 738.477L719.141 741.133C719.273 741.211 719.398 741.266 719.547 741.266C719.639 741.266 719.731 741.249 719.817 741.214C719.903 741.179 719.981 741.128 720.047 741.063C720.112 740.997 720.163 740.919 720.198 740.833C720.233 740.747 720.251 740.655 720.25 740.563C720.25 740.391 720.18 740.219 720.141 740.047C720.117 739.953 719.547 737.836 719.188 736.508C719.148 736.359 719.117 736.211 719.117 736.063C719.125 735.602 719.359 735.188 719.711 734.93V734.93ZM698.891 718.875C697.336 718.875 696.078 717.617 696.078 716.07C696.078 714.523 697.336 713.266 698.891 713.266C700.445 713.266 701.703 714.523 701.703 716.07C701.703 717.617 700.438 718.875 698.891 718.875ZM712.945 718.875C711.391 718.875 710.133 717.617 710.133 716.07C710.133 714.523 711.391 713.266 712.945 713.266C714.5 713.266 715.758 714.523 715.758 716.07C715.754 716.814 715.456 717.527 714.929 718.052C714.403 718.578 713.689 718.873 712.945 718.875V718.875Z" fill="black"/>
<path d="M342 602C342 621.33 324.09 637 302 637C298.038 637.005 294.093 636.491 290.265 635.47C287.345 636.95 280.64 639.79 269.36 641.64C268.36 641.8 267.6 640.76 267.995 639.83C269.765 635.65 271.365 630.08 271.845 625C265.72 618.85 262 610.8 262 602C262 582.67 279.91 567 302 567C324.09 567 342 582.67 342 602ZM284.5 587C283.837 587 283.201 587.263 282.732 587.732C282.263 588.201 282 588.837 282 589.5C282 590.163 282.263 590.799 282.732 591.268C283.201 591.737 283.837 592 284.5 592H319.5C320.163 592 320.799 591.737 321.268 591.268C321.737 590.799 322 590.163 322 589.5C322 588.837 321.737 588.201 321.268 587.732C320.799 587.263 320.163 587 319.5 587H284.5ZM284.5 599.5C283.837 599.5 283.201 599.763 282.732 600.232C282.263 600.701 282 601.337 282 602C282 602.663 282.263 603.299 282.732 603.768C283.201 604.237 283.837 604.5 284.5 604.5H319.5C320.163 604.5 320.799 604.237 321.268 603.768C321.737 603.299 322 602.663 322 602C322 601.337 321.737 600.701 321.268 600.232C320.799 599.763 320.163 599.5 319.5 599.5H284.5ZM284.5 612C283.837 612 283.201 612.263 282.732 612.732C282.263 613.201 282 613.837 282 614.5C282 615.163 282.263 615.799 282.732 616.268C283.201 616.737 283.837 617 284.5 617H304.5C305.163 617 305.799 616.737 306.268 616.268C306.737 615.799 307 615.163 307 614.5C307 613.837 306.737 613.201 306.268 612.732C305.799 612.263 305.163 612 304.5 612H284.5Z" fill="black"/>
<path d="M390 550.25C384.182 550.252 378.463 551.757 373.398 554.62C368.333 557.483 364.094 561.606 361.091 566.59C358.089 571.574 356.426 577.249 356.263 583.065C356.1 588.881 357.443 594.64 360.162 599.784L357.631 608.643C357.324 609.714 357.31 610.848 357.59 611.927C357.869 613.006 358.432 613.991 359.22 614.779C360.009 615.567 360.993 616.13 362.072 616.41C363.151 616.69 364.285 616.676 365.357 616.369L374.217 613.838C378.746 616.234 383.762 617.567 388.884 617.737C394.005 617.906 399.098 616.907 403.776 614.815C408.454 612.723 412.594 609.594 415.883 605.664C419.172 601.734 421.522 597.107 422.757 592.134C423.991 587.16 424.077 581.971 423.008 576.959C421.939 571.948 419.742 567.246 416.585 563.209C413.428 559.173 409.394 555.908 404.788 553.663C400.181 551.417 395.124 550.25 390 550.25V550.25ZM390 610.25C385.286 610.254 380.659 608.986 376.605 606.58C376.166 606.319 375.678 606.15 375.171 606.085C374.664 606.019 374.15 606.057 373.658 606.197L365.46 608.54L367.802 600.342C367.943 599.851 367.981 599.336 367.915 598.829C367.849 598.322 367.681 597.834 367.419 597.395C364.463 592.414 363.237 586.594 363.933 580.844C364.629 575.093 367.207 569.734 371.266 565.601C375.324 561.468 380.636 558.794 386.373 557.994C392.111 557.195 397.951 558.315 402.985 561.181C408.019 564.047 411.964 568.497 414.205 573.839C416.446 579.18 416.858 585.113 415.376 590.713C413.894 596.313 410.602 601.265 406.012 604.799C401.422 608.333 395.793 610.249 390 610.25V610.25ZM403.75 577.75C403.75 578.745 403.355 579.698 402.652 580.402C401.948 581.105 400.995 581.5 400 581.5H380C379.005 581.5 378.052 581.105 377.348 580.402C376.645 579.698 376.25 578.745 376.25 577.75C376.25 576.755 376.645 575.802 377.348 575.098C378.052 574.395 379.005 574 380 574H400C400.995 574 401.948 574.395 402.652 575.098C403.355 575.802 403.75 576.755 403.75 577.75ZM403.75 590.25C403.75 591.245 403.355 592.198 402.652 592.902C401.948 593.605 400.995 594 400 594H380C379.005 594 378.052 593.605 377.348 592.902C376.645 592.198 376.25 591.245 376.25 590.25C376.25 589.255 376.645 588.302 377.348 587.598C378.052 586.895 379.005 586.5 380 586.5H400C400.995 586.5 401.948 586.895 402.652 587.598C403.355 588.302 403.75 589.255 403.75 590.25Z" fill="black"/>
<path d="M882 229C882 248.33 864.09 264 842 264C838.038 264.005 834.093 263.491 830.265 262.47C827.345 263.95 820.64 266.79 809.36 268.64C808.36 268.8 807.6 267.76 807.995 266.83C809.765 262.65 811.365 257.08 811.845 252C805.72 245.85 802 237.8 802 229C802 209.67 819.91 194 842 194C864.09 194 882 209.67 882 229ZM824.5 214C823.837 214 823.201 214.263 822.732 214.732C822.263 215.201 822 215.837 822 216.5C822 217.163 822.263 217.799 822.732 218.268C823.201 218.737 823.837 219 824.5 219H859.5C860.163 219 860.799 218.737 861.268 218.268C861.737 217.799 862 217.163 862 216.5C862 215.837 861.737 215.201 861.268 214.732C860.799 214.263 860.163 214 859.5 214H824.5ZM824.5 226.5C823.837 226.5 823.201 226.763 822.732 227.232C822.263 227.701 822 228.337 822 229C822 229.663 822.263 230.299 822.732 230.768C823.201 231.237 823.837 231.5 824.5 231.5H859.5C860.163 231.5 860.799 231.237 861.268 230.768C861.737 230.299 862 229.663 862 229C862 228.337 861.737 227.701 861.268 227.232C860.799 226.763 860.163 226.5 859.5 226.5H824.5ZM824.5 239C823.837 239 823.201 239.263 822.732 239.732C822.263 240.201 822 240.837 822 241.5C822 242.163 822.263 242.799 822.732 243.268C823.201 243.737 823.837 244 824.5 244H844.5C845.163 244 845.799 243.737 846.268 243.268C846.737 242.799 847 242.163 847 241.5C847 240.837 846.737 240.201 846.268 239.732C845.799 239.263 845.163 239 844.5 239H824.5Z" fill="black"/>
<path d="M319.667 196V208.553L324.717 205.523L340.59 196H356.333C360.01 196 363 193.01 363 189.333V162.667C363 158.99 360.01 156 356.333 156H316.333C312.657 156 309.667 158.99 309.667 162.667V189.333C309.667 193.01 312.657 196 316.333 196H319.667ZM316.333 162.667H356.333V189.333H338.743L326.333 196.78V189.333H316.333V162.667Z" fill="black"/>
<path d="M369.667 142.667H329.667C325.99 142.667 323 145.657 323 149.333H363C366.677 149.333 369.667 152.323 369.667 156V182.667C373.343 182.667 376.333 179.677 376.333 176V149.333C376.333 145.657 373.343 142.667 369.667 142.667Z" fill="black"/>
<path d="M761.667 594V606.553L766.717 603.523L782.59 594H798.333C802.01 594 805 591.01 805 587.333V560.667C805 556.99 802.01 554 798.333 554H758.333C754.657 554 751.667 556.99 751.667 560.667V587.333C751.667 591.01 754.657 594 758.333 594H761.667ZM758.333 560.667H798.333V587.333H780.743L768.333 594.78V587.333H758.333V560.667Z" fill="black"/>
<path d="M811.667 540.667H771.667C767.99 540.667 765 543.657 765 547.333H805C808.677 547.333 811.667 550.323 811.667 554V580.667C815.343 580.667 818.333 577.677 818.333 574V547.333C818.333 543.657 815.343 540.667 811.667 540.667Z" fill="black"/>
<path d="M731.667 367V379.553L736.717 376.523L752.59 367H768.333C772.01 367 775 364.01 775 360.333V333.667C775 329.99 772.01 327 768.333 327H728.333C724.657 327 721.667 329.99 721.667 333.667V360.333C721.667 364.01 724.657 367 728.333 367H731.667ZM728.333 333.667H768.333V360.333H750.743L738.333 367.78V360.333H728.333V333.667Z" fill="black"/>
<path d="M781.667 313.667H741.667C737.99 313.667 735 316.657 735 320.333H775C778.677 320.333 781.667 323.323 781.667 327V353.667C785.343 353.667 788.333 350.677 788.333 347V320.333C788.333 316.657 785.343 313.667 781.667 313.667Z" fill="black"/>
<path d="M177.667 611V623.553L182.717 620.523L198.59 611H214.333C218.01 611 221 608.01 221 604.333V577.667C221 573.99 218.01 571 214.333 571H174.333C170.657 571 167.667 573.99 167.667 577.667V604.333C167.667 608.01 170.657 611 174.333 611H177.667ZM174.333 577.667H214.333V604.333H196.743L184.333 611.78V604.333H174.333V577.667Z" fill="black"/>
<path d="M227.667 557.667H187.667C183.99 557.667 181 560.657 181 564.333H221C224.677 564.333 227.667 567.323 227.667 571V597.667C231.343 597.667 234.333 594.677 234.333 591V564.333C234.333 560.657 231.343 557.667 227.667 557.667Z" fill="black"/>
<path d="M536.667 494V506.553L541.717 503.523L557.59 494H573.333C577.01 494 580 491.01 580 487.333V460.667C580 456.99 577.01 454 573.333 454H533.333C529.657 454 526.667 456.99 526.667 460.667V487.333C526.667 491.01 529.657 494 533.333 494H536.667ZM533.333 460.667H573.333V487.333H555.743L543.333 494.78V487.333H533.333V460.667Z" fill="black"/>
<path d="M586.667 440.667H546.667C542.99 440.667 540 443.657 540 447.333H580C583.677 447.333 586.667 450.323 586.667 454V480.667C590.343 480.667 593.333 477.677 593.333 474V447.333C593.333 443.657 590.343 440.667 586.667 440.667Z" fill="black"/>
<path d="M126.5 244.25V263C126.044 262.74 125.393 262.349 124.547 261.828C123.701 261.307 121.943 259.875 119.273 257.531C116.604 255.188 113.935 252.453 111.266 249.328C108.076 250.109 104.82 250.5 101.5 250.5C96.7474 250.5 92.3691 250.012 88.3652 249.035C84.3613 248.059 81.0898 246.854 78.5508 245.422C76.0117 243.99 73.847 242.395 72.0566 240.637C70.2663 238.879 68.9967 237.251 68.248 235.754C67.4993 234.257 67.125 232.922 67.125 231.75H76.5C84.8984 231.75 92.3691 230.285 98.9121 227.355C105.455 224.426 110.647 220.096 114.488 214.367C118.329 208.638 120.25 201.932 120.25 194.25C132.75 200.565 139 209.419 139 220.812C139 230.122 134.833 237.935 126.5 244.25ZM76.5 225.5C73.1797 225.5 69.9245 225.109 66.7344 224.328C64.0651 227.453 61.4609 230.155 58.9219 232.434C56.3828 234.712 54.4948 236.21 53.2578 236.926L51.5 238V219.25C43.1667 212.935 39 205.122 39 195.812C39 189.888 40.6764 184.403 44.0293 179.357C47.3822 174.312 51.9395 170.324 57.7012 167.395C63.4629 164.465 69.7454 163 76.5488 163C83.3522 163 89.6348 164.465 95.3965 167.395C101.158 170.324 105.699 174.312 109.02 179.357C112.34 184.403 114 189.888 114 195.812C114 201.737 112.307 206.978 108.922 211.535C105.536 216.092 101.012 219.559 95.3477 221.936C89.6836 224.312 83.401 225.5 76.5 225.5ZM76.5 169.25C70.8359 169.25 65.6113 170.357 60.8262 172.57C56.041 174.784 52.2487 177.811 49.4492 181.652C46.6497 185.493 45.25 189.676 45.25 194.201C45.25 198.726 46.6497 202.909 49.4492 206.75C52.2487 210.591 56.041 213.635 60.8262 215.881C65.6113 218.127 70.8359 219.25 76.5 219.25C82.1641 219.25 87.3887 218.127 92.1738 215.881C96.959 213.635 100.751 210.591 103.551 206.75C106.35 202.909 107.75 198.726 107.75 194.201C107.75 189.676 106.35 185.493 103.551 181.652C100.751 177.811 96.959 174.784 92.1738 172.57C87.3887 170.357 82.1641 169.25 76.5 169.25Z" fill="black"/>
<path d="M142.5 628.25V647C142.044 646.74 141.393 646.349 140.547 645.828C139.701 645.307 137.943 643.875 135.273 641.531C132.604 639.188 129.935 636.453 127.266 633.328C124.076 634.109 120.82 634.5 117.5 634.5C112.747 634.5 108.369 634.012 104.365 633.035C100.361 632.059 97.0898 630.854 94.5508 629.422C92.0117 627.99 89.847 626.395 88.0566 624.637C86.2663 622.879 84.9967 621.251 84.248 619.754C83.4993 618.257 83.125 616.922 83.125 615.75H92.5C100.898 615.75 108.369 614.285 114.912 611.355C121.455 608.426 126.647 604.096 130.488 598.367C134.329 592.638 136.25 585.932 136.25 578.25C148.75 584.565 155 593.419 155 604.812C155 614.122 150.833 621.935 142.5 628.25ZM92.5 609.5C89.1797 609.5 85.9245 609.109 82.7344 608.328C80.0651 611.453 77.4609 614.155 74.9219 616.434C72.3828 618.712 70.4948 620.21 69.2578 620.926L67.5 622V603.25C59.1667 596.935 55 589.122 55 579.812C55 573.888 56.6764 568.403 60.0293 563.357C63.3822 558.312 67.9395 554.324 73.7012 551.395C79.4629 548.465 85.7454 547 92.5488 547C99.3522 547 105.635 548.465 111.396 551.395C117.158 554.324 121.699 558.312 125.02 563.357C128.34 568.403 130 573.888 130 579.812C130 585.737 128.307 590.978 124.922 595.535C121.536 600.092 117.012 603.559 111.348 605.936C105.684 608.312 99.401 609.5 92.5 609.5ZM92.5 553.25C86.8359 553.25 81.6113 554.357 76.8262 556.57C72.041 558.784 68.2487 561.811 65.4492 565.652C62.6497 569.493 61.25 573.676 61.25 578.201C61.25 582.726 62.6497 586.909 65.4492 590.75C68.2487 594.591 72.041 597.635 76.8262 599.881C81.6113 602.127 86.8359 603.25 92.5 603.25C98.1641 603.25 103.389 602.127 108.174 599.881C112.959 597.635 116.751 594.591 119.551 590.75C122.35 586.909 123.75 582.726 123.75 578.201C123.75 573.676 122.35 569.493 119.551 565.652C116.751 561.811 112.959 558.784 108.174 556.57C103.389 554.357 98.1641 553.25 92.5 553.25Z" fill="black"/>
<path d="M738.5 206.25V225C738.044 224.74 737.393 224.349 736.547 223.828C735.701 223.307 733.943 221.875 731.273 219.531C728.604 217.188 725.935 214.453 723.266 211.328C720.076 212.109 716.82 212.5 713.5 212.5C708.747 212.5 704.369 212.012 700.365 211.035C696.361 210.059 693.09 208.854 690.551 207.422C688.012 205.99 685.847 204.395 684.057 202.637C682.266 200.879 680.997 199.251 680.248 197.754C679.499 196.257 679.125 194.922 679.125 193.75H688.5C696.898 193.75 704.369 192.285 710.912 189.355C717.455 186.426 722.647 182.096 726.488 176.367C730.329 170.638 732.25 163.932 732.25 156.25C744.75 162.565 751 171.419 751 182.812C751 192.122 746.833 199.935 738.5 206.25ZM688.5 187.5C685.18 187.5 681.924 187.109 678.734 186.328C676.065 189.453 673.461 192.155 670.922 194.434C668.383 196.712 666.495 198.21 665.258 198.926L663.5 200V181.25C655.167 174.935 651 167.122 651 157.812C651 151.888 652.676 146.403 656.029 141.357C659.382 136.312 663.939 132.324 669.701 129.395C675.463 126.465 681.745 125 688.549 125C695.352 125 701.635 126.465 707.396 129.395C713.158 132.324 717.699 136.312 721.02 141.357C724.34 146.403 726 151.888 726 157.812C726 163.737 724.307 168.978 720.922 173.535C717.536 178.092 713.012 181.559 707.348 183.936C701.684 186.312 695.401 187.5 688.5 187.5ZM688.5 131.25C682.836 131.25 677.611 132.357 672.826 134.57C668.041 136.784 664.249 139.811 661.449 143.652C658.65 147.493 657.25 151.676 657.25 156.201C657.25 160.726 658.65 164.909 661.449 168.75C664.249 172.591 668.041 175.635 672.826 177.881C677.611 180.127 682.836 181.25 688.5 181.25C694.164 181.25 699.389 180.127 704.174 177.881C708.959 175.635 712.751 172.591 715.551 168.75C718.35 164.909 719.75 160.726 719.75 156.201C719.75 151.676 718.35 147.493 715.551 143.652C712.751 139.811 708.959 136.784 704.174 134.57C699.389 132.357 694.164 131.25 688.5 131.25Z" fill="black"/>
<path d="M454.5 535.25V554C454.044 553.74 453.393 553.349 452.547 552.828C451.701 552.307 449.943 550.875 447.273 548.531C444.604 546.188 441.935 543.453 439.266 540.328C436.076 541.109 432.82 541.5 429.5 541.5C424.747 541.5 420.369 541.012 416.365 540.035C412.361 539.059 409.09 537.854 406.551 536.422C404.012 534.99 401.847 533.395 400.057 531.637C398.266 529.879 396.997 528.251 396.248 526.754C395.499 525.257 395.125 523.922 395.125 522.75H404.5C412.898 522.75 420.369 521.285 426.912 518.355C433.455 515.426 438.647 511.096 442.488 505.367C446.329 499.638 448.25 492.932 448.25 485.25C460.75 491.565 467 500.419 467 511.812C467 521.122 462.833 528.935 454.5 535.25ZM404.5 516.5C401.18 516.5 397.924 516.109 394.734 515.328C392.065 518.453 389.461 521.155 386.922 523.434C384.383 525.712 382.495 527.21 381.258 527.926L379.5 529V510.25C371.167 503.935 367 496.122 367 486.812C367 480.888 368.676 475.403 372.029 470.357C375.382 465.312 379.939 461.324 385.701 458.395C391.463 455.465 397.745 454 404.549 454C411.352 454 417.635 455.465 423.396 458.395C429.158 461.324 433.699 465.312 437.02 470.357C440.34 475.403 442 480.888 442 486.812C442 492.737 440.307 497.978 436.922 502.535C433.536 507.092 429.012 510.559 423.348 512.936C417.684 515.312 411.401 516.5 404.5 516.5ZM404.5 460.25C398.836 460.25 393.611 461.357 388.826 463.57C384.041 465.784 380.249 468.811 377.449 472.652C374.65 476.493 373.25 480.676 373.25 485.201C373.25 489.726 374.65 493.909 377.449 497.75C380.249 501.591 384.041 504.635 388.826 506.881C393.611 509.127 398.836 510.25 404.5 510.25C410.164 510.25 415.389 509.127 420.174 506.881C424.959 504.635 428.751 501.591 431.551 497.75C434.35 493.909 435.75 489.726 435.75 485.201C435.75 480.676 434.35 476.493 431.551 472.652C428.751 468.811 424.959 465.784 420.174 463.57C415.389 461.357 410.164 460.25 404.5 460.25Z" fill="black"/>
<path d="M835.5 683.25V702C835.044 701.74 834.393 701.349 833.547 700.828C832.701 700.307 830.943 698.875 828.273 696.531C825.604 694.188 822.935 691.453 820.266 688.328C817.076 689.109 813.82 689.5 810.5 689.5C805.747 689.5 801.369 689.012 797.365 688.035C793.361 687.059 790.09 685.854 787.551 684.422C785.012 682.99 782.847 681.395 781.057 679.637C779.266 677.879 777.997 676.251 777.248 674.754C776.499 673.257 776.125 671.922 776.125 670.75H785.5C793.898 670.75 801.369 669.285 807.912 666.355C814.455 663.426 819.647 659.096 823.488 653.367C827.329 647.638 829.25 640.932 829.25 633.25C841.75 639.565 848 648.419 848 659.812C848 669.122 843.833 676.935 835.5 683.25ZM785.5 664.5C782.18 664.5 778.924 664.109 775.734 663.328C773.065 666.453 770.461 669.155 767.922 671.434C765.383 673.712 763.495 675.21 762.258 675.926L760.5 677V658.25C752.167 651.935 748 644.122 748 634.812C748 628.888 749.676 623.403 753.029 618.357C756.382 613.312 760.939 609.324 766.701 606.395C772.463 603.465 778.745 602 785.549 602C792.352 602 798.635 603.465 804.396 606.395C810.158 609.324 814.699 613.312 818.02 618.357C821.34 623.403 823 628.888 823 634.812C823 640.737 821.307 645.978 817.922 650.535C814.536 655.092 810.012 658.559 804.348 660.936C798.684 663.312 792.401 664.5 785.5 664.5ZM785.5 608.25C779.836 608.25 774.611 609.357 769.826 611.57C765.041 613.784 761.249 616.811 758.449 620.652C755.65 624.493 754.25 628.676 754.25 633.201C754.25 637.726 755.65 641.909 758.449 645.75C761.249 649.591 765.041 652.635 769.826 654.881C774.611 657.127 779.836 658.25 785.5 658.25C791.164 658.25 796.389 657.127 801.174 654.881C805.959 652.635 809.751 649.591 812.551 645.75C815.35 641.909 816.75 637.726 816.75 633.201C816.75 628.676 815.35 624.493 812.551 620.652C809.751 616.811 805.959 613.784 801.174 611.57C796.389 609.357 791.164 608.25 785.5 608.25Z" fill="black"/>
<path fill-rule="evenodd" clip-rule="evenodd" d="M155 285C155 274.391 159.214 264.217 166.716 256.716C174.217 249.214 184.391 245 195 245C205.609 245 215.783 249.214 223.284 256.716C230.786 264.217 235 274.391 235 285V325H195C184.391 325 174.217 320.786 166.716 313.284C159.214 305.783 155 295.609 155 285V285ZM176.333 287.667H181.667V282.333H176.333V287.667ZM213.667 287.667H208.333V282.333H213.667V287.667ZM192.333 287.667H197.667V282.333H192.333V287.667Z" fill="black"/>
<path opacity="0.25" d="M384.48 713.617C384.575 713.724 384.632 713.86 384.64 714.003C384.64 714.197 384.457 714.33 384.227 714.33C380.723 713.352 377.474 711.626 374.703 709.27C374.473 709.099 374.206 708.985 373.922 708.939C373.639 708.892 373.349 708.914 373.077 709.003C370.752 709.508 368.379 709.762 366 709.76C350.677 709.76 338.257 699.507 338.257 686.85C338.257 674.203 350.677 663.95 366 663.95C381.323 663.95 393.743 674.203 393.743 686.85C393.62 690.63 392.519 694.314 390.548 697.543C388.577 700.771 385.803 703.433 382.497 705.27C382.231 705.416 382.005 705.626 381.841 705.881C381.677 706.136 381.579 706.428 381.557 706.73C381.956 709.229 382.96 711.593 384.48 713.617V713.617Z" fill="black"/>
<path d="M384.207 693.23C384.205 692.878 384.064 692.541 383.815 692.293C383.566 692.044 383.229 691.904 382.877 691.903C382.553 691.903 382.24 692.023 382 692.24C377.525 695.993 371.853 698.017 366.013 697.943H365.987C360.162 697.932 354.518 695.919 350 692.243C349.735 692.052 349.42 691.943 349.093 691.93C348.91 691.936 348.73 691.979 348.564 692.057C348.398 692.136 348.25 692.247 348.128 692.384C348.006 692.521 347.914 692.682 347.856 692.856C347.799 693.03 347.777 693.214 347.793 693.397C347.885 693.994 348.15 694.551 348.553 695C350.632 697.59 353.282 699.662 356.297 701.055C359.311 702.447 362.607 703.122 365.927 703.027H366.073C369.393 703.122 372.689 702.447 375.703 701.055C378.718 699.662 381.368 697.59 383.447 695C383.855 694.489 384.117 693.878 384.207 693.23" fill="black"/>
<path d="M384.48 713.617C384.575 713.724 384.632 713.86 384.64 714.003C384.64 714.197 384.457 714.33 384.227 714.33C380.723 713.352 377.474 711.626 374.703 709.27C374.473 709.099 374.206 708.985 373.922 708.939C373.639 708.892 373.349 708.914 373.077 709.003C370.752 709.508 368.379 709.762 366 709.76C350.677 709.76 338.257 699.507 338.257 686.85C338.257 674.203 350.677 663.95 366 663.95C381.323 663.95 393.743 674.203 393.743 686.85C393.62 690.63 392.519 694.314 390.548 697.543C388.577 700.771 385.803 703.433 382.497 705.27C382.231 705.416 382.005 705.626 381.841 705.881C381.677 706.136 381.579 706.428 381.557 706.73C381.956 709.229 382.96 711.593 384.48 713.617V713.617ZM393.4 716.413C390.765 714.943 388.766 712.551 387.787 709.697C387.684 709.438 387.672 709.152 387.754 708.885C387.835 708.619 388.004 708.388 388.233 708.23C391.61 705.756 394.369 702.535 396.295 698.818C398.221 695.101 399.26 690.989 399.333 686.803C399.333 670.92 384.41 658.047 366 658.047C347.59 658.047 332.667 670.92 332.667 686.803C332.667 702.693 347.59 715.57 366 715.57C368.352 715.571 370.7 715.357 373.013 714.93C373.487 714.836 373.979 714.928 374.387 715.187C379.624 718.351 385.584 720.123 391.7 720.333C392.032 720.379 392.369 720.352 392.69 720.256C393.011 720.16 393.307 719.996 393.559 719.775C393.812 719.555 394.013 719.283 394.152 718.978C394.29 718.673 394.361 718.342 394.36 718.007C394.36 717.679 394.271 717.357 394.102 717.076C393.933 716.796 393.69 716.566 393.4 716.413V716.413Z" fill="black"/>
<path opacity="0.25" d="M962.48 396.617C962.575 396.724 962.631 396.86 962.64 397.003C962.64 397.197 962.457 397.33 962.227 397.33C958.723 396.352 955.474 394.626 952.703 392.27C952.473 392.099 952.205 391.985 951.922 391.939C951.639 391.892 951.349 391.914 951.077 392.003C948.752 392.508 946.379 392.762 944 392.76C928.677 392.76 916.257 382.507 916.257 369.85C916.257 357.203 928.677 346.95 944 346.95C959.323 346.95 971.743 357.203 971.743 369.85C971.62 373.63 970.519 377.314 968.548 380.543C966.577 383.771 963.803 386.433 960.497 388.27C960.231 388.416 960.005 388.626 959.841 388.881C959.677 389.136 959.579 389.428 959.557 389.73C959.956 392.229 960.96 394.593 962.48 396.617V396.617Z" fill="black"/>
<path d="M962.207 376.23C962.205 375.878 962.064 375.541 961.815 375.293C961.566 375.044 961.229 374.904 960.877 374.903C960.553 374.903 960.24 375.023 960 375.24C955.525 378.993 949.853 381.017 944.013 380.943H943.987C938.162 380.932 932.518 378.919 928 375.243C927.735 375.052 927.42 374.943 927.093 374.93C926.91 374.936 926.73 374.979 926.564 375.057C926.398 375.136 926.25 375.247 926.128 375.384C926.006 375.521 925.914 375.682 925.856 375.856C925.799 376.03 925.777 376.214 925.793 376.397C925.885 376.994 926.15 377.551 926.553 378C928.632 380.59 931.282 382.662 934.297 384.055C937.311 385.447 940.607 386.122 943.927 386.027H944.073C947.393 386.122 950.689 385.447 953.703 384.055C956.718 382.662 959.368 380.59 961.447 378C961.855 377.489 962.117 376.878 962.207 376.23" fill="black"/>
<path d="M962.48 396.617C962.575 396.724 962.632 396.86 962.64 397.003C962.64 397.197 962.457 397.33 962.227 397.33C958.723 396.352 955.474 394.626 952.703 392.27C952.473 392.099 952.206 391.985 951.922 391.939C951.639 391.892 951.349 391.914 951.077 392.003C948.752 392.508 946.379 392.762 944 392.76C928.677 392.76 916.257 382.507 916.257 369.85C916.257 357.203 928.677 346.95 944 346.95C959.323 346.95 971.743 357.203 971.743 369.85C971.62 373.63 970.519 377.314 968.548 380.543C966.577 383.771 963.803 386.433 960.497 388.27C960.231 388.416 960.006 388.626 959.841 388.881C959.677 389.136 959.579 389.428 959.557 389.73C959.956 392.229 960.96 394.593 962.48 396.617V396.617ZM971.4 399.413C968.765 397.943 966.766 395.551 965.787 392.697C965.684 392.438 965.672 392.152 965.754 391.885C965.835 391.619 966.004 391.388 966.233 391.23C969.61 388.756 972.369 385.535 974.295 381.818C976.221 378.101 977.26 373.989 977.333 369.803C977.333 353.92 962.41 341.047 944 341.047C925.59 341.047 910.667 353.92 910.667 369.803C910.667 385.693 925.59 398.57 944 398.57C946.352 398.571 948.7 398.357 951.013 397.93C951.487 397.836 951.979 397.928 952.387 398.187C957.624 401.351 963.584 403.123 969.7 403.333C970.032 403.379 970.37 403.352 970.69 403.256C971.011 403.16 971.307 402.996 971.559 402.775C971.812 402.555 972.013 402.283 972.152 401.978C972.29 401.673 972.361 401.342 972.36 401.007C972.36 400.679 972.271 400.357 972.102 400.076C971.933 399.796 971.69 399.566 971.4 399.413V399.413Z" fill="black"/>
<path opacity="0.25" d="M561.48 142.617C561.575 142.724 561.632 142.86 561.64 143.003C561.64 143.197 561.457 143.33 561.227 143.33C557.723 142.352 554.474 140.626 551.703 138.27C551.473 138.099 551.206 137.985 550.922 137.939C550.639 137.892 550.349 137.914 550.077 138.003C547.752 138.508 545.379 138.762 543 138.76C527.677 138.76 515.257 128.507 515.257 115.85C515.257 103.203 527.677 92.95 543 92.95C558.323 92.95 570.743 103.203 570.743 115.85C570.62 119.63 569.519 123.314 567.548 126.543C565.577 129.771 562.803 132.433 559.497 134.27C559.231 134.416 559.005 134.626 558.841 134.881C558.677 135.136 558.579 135.428 558.557 135.73C558.956 138.229 559.96 140.593 561.48 142.617V142.617Z" fill="black"/>
<path d="M561.207 122.23C561.205 121.878 561.064 121.541 560.815 121.293C560.566 121.044 560.229 120.904 559.877 120.903C559.553 120.903 559.24 121.023 559 121.24C554.525 124.993 548.853 127.017 543.013 126.943H542.987C537.162 126.932 531.518 124.919 527 121.243C526.735 121.052 526.42 120.943 526.093 120.93C525.91 120.936 525.73 120.979 525.564 121.057C525.398 121.136 525.25 121.247 525.128 121.384C525.006 121.521 524.914 121.682 524.856 121.856C524.799 122.03 524.777 122.214 524.793 122.397C524.885 122.994 525.15 123.551 525.553 124C527.632 126.59 530.282 128.662 533.297 130.055C536.311 131.447 539.607 132.122 542.927 132.027H543.073C546.393 132.122 549.689 131.447 552.703 130.055C555.718 128.662 558.368 126.59 560.447 124C560.855 123.489 561.117 122.878 561.207 122.23" fill="black"/>
<path d="M561.48 142.617C561.575 142.724 561.631 142.86 561.64 143.003C561.64 143.197 561.457 143.33 561.227 143.33C557.723 142.352 554.474 140.626 551.703 138.27C551.473 138.099 551.205 137.985 550.922 137.939C550.639 137.892 550.349 137.914 550.077 138.003C547.752 138.508 545.379 138.762 543 138.76C527.677 138.76 515.257 128.507 515.257 115.85C515.257 103.203 527.677 92.95 543 92.95C558.323 92.95 570.743 103.203 570.743 115.85C570.62 119.63 569.519 123.314 567.548 126.543C565.577 129.771 562.803 132.433 559.497 134.27C559.231 134.416 559.005 134.626 558.841 134.881C558.677 135.136 558.579 135.428 558.557 135.73C558.956 138.229 559.96 140.593 561.48 142.617V142.617ZM570.4 145.413C567.765 143.943 565.766 141.551 564.787 138.697C564.684 138.438 564.672 138.152 564.754 137.885C564.835 137.619 565.004 137.388 565.233 137.23C568.61 134.756 571.369 131.535 573.295 127.818C575.221 124.101 576.26 119.989 576.333 115.803C576.333 99.92 561.41 87.0467 543 87.0467C524.59 87.0467 509.667 99.92 509.667 115.803C509.667 131.693 524.59 144.57 543 144.57C545.352 144.571 547.7 144.357 550.013 143.93C550.487 143.836 550.979 143.928 551.387 144.187C556.624 147.351 562.584 149.123 568.7 149.333C569.032 149.379 569.369 149.352 569.69 149.256C570.011 149.16 570.307 148.996 570.559 148.775C570.812 148.555 571.013 148.283 571.151 147.978C571.29 147.673 571.361 147.342 571.36 147.007C571.36 146.679 571.271 146.357 571.102 146.076C570.933 145.796 570.69 145.566 570.4 145.413V145.413Z" fill="black"/>
<path opacity="0.25" d="M219.48 95.6167C219.575 95.724 219.632 95.8602 219.64 96.0033C219.64 96.1967 219.457 96.33 219.227 96.33C215.723 95.3524 212.474 93.626 209.703 91.27C209.473 91.0987 209.206 90.9851 208.922 90.9387C208.639 90.8923 208.349 90.9145 208.077 91.0033C205.752 91.5079 203.379 91.7616 201 91.76C185.677 91.76 173.257 81.5067 173.257 68.85C173.257 56.2033 185.677 45.95 201 45.95C216.323 45.95 228.743 56.2033 228.743 68.85C228.62 72.6304 227.519 76.3144 225.548 79.5426C223.577 82.7709 220.803 85.4332 217.497 87.27C217.231 87.4158 217.005 87.6257 216.841 87.8807C216.677 88.1357 216.579 88.4276 216.557 88.73C216.956 91.2292 217.96 93.5931 219.48 95.6167V95.6167Z" fill="black"/>
<path d="M219.207 75.23C219.205 74.8781 219.064 74.5412 218.815 74.2927C218.566 74.0441 218.229 73.9042 217.877 73.9033C217.553 73.903 217.24 74.023 217 74.24C212.525 77.9931 206.853 80.0167 201.013 79.9433H200.987C195.162 79.9318 189.518 77.9195 185 74.2433C184.735 74.0517 184.42 73.9427 184.093 73.93C183.91 73.9361 183.73 73.9795 183.564 74.0575C183.398 74.1355 183.25 74.2465 183.128 74.3838C183.006 74.521 182.914 74.6816 182.856 74.8558C182.799 75.0299 182.777 75.2139 182.793 75.3967C182.885 75.9936 183.15 76.5508 183.553 77C185.632 79.5896 188.282 81.6621 191.297 83.0547C194.311 84.4474 197.607 85.1224 200.927 85.0267H201.073C204.393 85.1224 207.689 84.4474 210.703 83.0547C213.718 81.6621 216.368 79.5896 218.447 77C218.855 76.4891 219.117 75.8776 219.207 75.23" fill="black"/>
<path d="M219.48 95.6167C219.575 95.724 219.632 95.8602 219.64 96.0033C219.64 96.1967 219.457 96.33 219.227 96.33C215.723 95.3524 212.474 93.6259 209.703 91.27C209.473 91.0987 209.205 90.9851 208.922 90.9387C208.639 90.8923 208.349 90.9145 208.077 91.0033C205.752 91.5079 203.379 91.7616 201 91.76C185.677 91.76 173.257 81.5067 173.257 68.85C173.257 56.2033 185.677 45.95 201 45.95C216.323 45.95 228.743 56.2033 228.743 68.85C228.62 72.6304 227.519 76.3144 225.548 79.5426C223.577 82.7709 220.803 85.4332 217.497 87.27C217.231 87.4158 217.005 87.6257 216.841 87.8807C216.677 88.1356 216.579 88.4276 216.557 88.73C216.956 91.2292 217.96 93.5931 219.48 95.6167V95.6167ZM228.4 98.4133C225.765 96.9429 223.766 94.5509 222.787 91.6967C222.684 91.4377 222.672 91.1517 222.754 90.8852C222.835 90.6188 223.004 90.3878 223.233 90.23C226.61 87.7561 229.369 84.5348 231.295 80.8178C233.221 77.1008 234.26 72.9889 234.333 68.8033C234.333 52.92 219.41 40.0467 201 40.0467C182.59 40.0467 167.667 52.92 167.667 68.8033C167.667 84.6933 182.59 97.57 201 97.57C203.352 97.5711 205.7 97.3568 208.013 96.93C208.487 96.8363 208.979 96.9282 209.387 97.1867C214.624 100.351 220.584 102.123 226.7 102.333C227.032 102.379 227.369 102.352 227.69 102.256C228.011 102.16 228.307 101.996 228.559 101.775C228.812 101.555 229.013 101.283 229.152 100.978C229.29 100.673 229.361 100.342 229.36 100.007C229.36 99.6788 229.271 99.3572 229.102 99.0764C228.933 98.7956 228.69 98.5663 228.4 98.4133V98.4133Z" fill="black"/>
<path opacity="0.25" d="M511.48 713.617C511.575 713.724 511.632 713.86 511.64 714.003C511.64 714.197 511.457 714.33 511.227 714.33C507.723 713.352 504.474 711.626 501.703 709.27C501.473 709.099 501.206 708.985 500.922 708.939C500.639 708.892 500.349 708.914 500.077 709.003C497.752 709.508 495.379 709.762 493 709.76C477.677 709.76 465.257 699.507 465.257 686.85C465.257 674.203 477.677 663.95 493 663.95C508.323 663.95 520.743 674.203 520.743 686.85C520.62 690.63 519.519 694.314 517.548 697.543C515.577 700.771 512.803 703.433 509.497 705.27C509.231 705.416 509.005 705.626 508.841 705.881C508.677 706.136 508.579 706.428 508.557 706.73C508.956 709.229 509.96 711.593 511.48 713.617V713.617Z" fill="black"/>
<path d="M511.207 693.23C511.205 692.878 511.064 692.541 510.815 692.293C510.566 692.044 510.229 691.904 509.877 691.903C509.553 691.903 509.24 692.023 509 692.24C504.525 695.993 498.853 698.017 493.013 697.943H492.987C487.162 697.932 481.518 695.919 477 692.243C476.735 692.052 476.42 691.943 476.093 691.93C475.91 691.936 475.73 691.979 475.564 692.057C475.398 692.136 475.25 692.247 475.128 692.384C475.006 692.521 474.914 692.682 474.856 692.856C474.799 693.03 474.777 693.214 474.793 693.397C474.885 693.994 475.15 694.551 475.553 695C477.632 697.59 480.282 699.662 483.297 701.055C486.311 702.447 489.607 703.122 492.927 703.027H493.073C496.393 703.122 499.689 702.447 502.703 701.055C505.718 699.662 508.368 697.59 510.447 695C510.855 694.489 511.117 693.878 511.207 693.23" fill="black"/>
<path d="M511.48 713.617C511.575 713.724 511.631 713.86 511.64 714.003C511.64 714.197 511.457 714.33 511.227 714.33C507.723 713.352 504.474 711.626 501.703 709.27C501.473 709.099 501.205 708.985 500.922 708.939C500.639 708.892 500.349 708.914 500.077 709.003C497.752 709.508 495.379 709.762 493 709.76C477.677 709.76 465.257 699.507 465.257 686.85C465.257 674.203 477.677 663.95 493 663.95C508.323 663.95 520.743 674.203 520.743 686.85C520.62 690.63 519.519 694.314 517.548 697.543C515.577 700.771 512.803 703.433 509.497 705.27C509.231 705.416 509.005 705.626 508.841 705.881C508.677 706.136 508.579 706.428 508.557 706.73C508.956 709.229 509.96 711.593 511.48 713.617V713.617ZM520.4 716.413C517.765 714.943 515.766 712.551 514.787 709.697C514.684 709.438 514.672 709.152 514.754 708.885C514.835 708.619 515.004 708.388 515.233 708.23C518.61 705.756 521.369 702.535 523.295 698.818C525.221 695.101 526.26 690.989 526.333 686.803C526.333 670.92 511.41 658.047 493 658.047C474.59 658.047 459.667 670.92 459.667 686.803C459.667 702.693 474.59 715.57 493 715.57C495.352 715.571 497.7 715.357 500.013 714.93C500.487 714.836 500.979 714.928 501.387 715.187C506.624 718.351 512.584 720.123 518.7 720.333C519.032 720.379 519.369 720.352 519.69 720.256C520.011 720.16 520.307 719.996 520.559 719.775C520.812 719.555 521.013 719.283 521.151 718.978C521.29 718.673 521.361 718.342 521.36 718.007C521.36 717.679 521.271 717.357 521.102 717.076C520.933 716.796 520.69 716.566 520.4 716.413V716.413Z" fill="black"/>
<path d="M314 693.667H274C271.348 693.667 268.804 694.72 266.929 696.596C265.054 698.471 264 701.015 264 703.667V740.333C264 742.986 265.054 745.529 266.929 747.404C268.804 749.28 271.348 750.333 274 750.333H282.633L291.633 759.367C291.945 759.676 292.314 759.92 292.72 760.086C293.126 760.252 293.561 760.336 294 760.333C294.794 760.333 295.563 760.05 296.167 759.533L306.9 750.333H314C316.652 750.333 319.196 749.28 321.071 747.404C322.946 745.529 324 742.986 324 740.333V703.667C324 701.015 322.946 698.471 321.071 696.596C319.196 694.72 316.652 693.667 314 693.667ZM317.333 740.333C317.333 741.217 316.982 742.065 316.357 742.69C315.732 743.315 314.884 743.667 314 743.667H305.667C304.872 743.667 304.104 743.95 303.5 744.467L294.167 752.467L286.367 744.633C286.055 744.324 285.686 744.08 285.28 743.914C284.874 743.748 284.439 743.664 284 743.667H274C273.116 743.667 272.268 743.315 271.643 742.69C271.018 742.065 270.667 741.217 270.667 740.333V703.667C270.667 702.783 271.018 701.935 271.643 701.31C272.268 700.685 273.116 700.333 274 700.333H314C314.884 700.333 315.732 700.685 316.357 701.31C316.982 701.935 317.333 702.783 317.333 703.667V740.333Z" fill="black"/>
<path d="M903 293.667H863C860.348 293.667 857.804 294.72 855.929 296.596C854.054 298.471 853 301.015 853 303.667V340.333C853 342.986 854.054 345.529 855.929 347.404C857.804 349.28 860.348 350.333 863 350.333H871.633L880.633 359.367C880.945 359.676 881.314 359.92 881.72 360.086C882.126 360.252 882.561 360.336 883 360.333C883.794 360.333 884.563 360.05 885.167 359.533L895.9 350.333H903C905.652 350.333 908.196 349.28 910.071 347.404C911.946 345.529 913 342.986 913 340.333V303.667C913 301.015 911.946 298.471 910.071 296.596C908.196 294.72 905.652 293.667 903 293.667ZM906.333 340.333C906.333 341.217 905.982 342.065 905.357 342.69C904.732 343.315 903.884 343.667 903 343.667H894.667C893.872 343.667 893.104 343.95 892.5 344.467L883.167 352.467L875.367 344.633C875.055 344.324 874.686 344.08 874.28 343.914C873.874 343.748 873.439 343.664 873 343.667H863C862.116 343.667 861.268 343.315 860.643 342.69C860.018 342.065 859.667 341.217 859.667 340.333V303.667C859.667 302.783 860.018 301.935 860.643 301.31C861.268 300.685 862.116 300.333 863 300.333H903C903.884 300.333 904.732 300.685 905.357 301.31C905.982 301.935 906.333 302.783 906.333 303.667V340.333Z" fill="black"/>
<path d="M182 672.667H142C139.348 672.667 136.804 673.72 134.929 675.596C133.054 677.471 132 680.014 132 682.667V719.333C132 721.985 133.054 724.529 134.929 726.404C136.804 728.28 139.348 729.333 142 729.333H150.633L159.633 738.367C159.945 738.676 160.314 738.92 160.72 739.086C161.126 739.252 161.561 739.336 162 739.333C162.794 739.333 163.563 739.05 164.167 738.533L174.9 729.333H182C184.652 729.333 187.196 728.28 189.071 726.404C190.946 724.529 192 721.985 192 719.333V682.667C192 680.014 190.946 677.471 189.071 675.596C187.196 673.72 184.652 672.667 182 672.667ZM185.333 719.333C185.333 720.217 184.982 721.065 184.357 721.69C183.732 722.315 182.884 722.667 182 722.667H173.667C172.872 722.667 172.104 722.95 171.5 723.467L162.167 731.467L154.367 723.633C154.055 723.324 153.686 723.08 153.28 722.914C152.874 722.748 152.439 722.664 152 722.667H142C141.116 722.667 140.268 722.315 139.643 721.69C139.018 721.065 138.667 720.217 138.667 719.333V682.667C138.667 681.783 139.018 680.935 139.643 680.31C140.268 679.685 141.116 679.333 142 679.333H182C182.884 679.333 183.732 679.685 184.357 680.31C184.982 680.935 185.333 681.783 185.333 682.667V719.333Z" fill="black"/>
<path d="M924 450.667H884C881.348 450.667 878.804 451.72 876.929 453.596C875.054 455.471 874 458.014 874 460.667V497.333C874 499.985 875.054 502.529 876.929 504.404C878.804 506.28 881.348 507.333 884 507.333H892.633L901.633 516.367C901.945 516.676 902.314 516.92 902.72 517.086C903.126 517.252 903.561 517.336 904 517.333C904.794 517.333 905.563 517.05 906.167 516.533L916.9 507.333H924C926.652 507.333 929.196 506.28 931.071 504.404C932.946 502.529 934 499.985 934 497.333V460.667C934 458.014 932.946 455.471 931.071 453.596C929.196 451.72 926.652 450.667 924 450.667ZM927.333 497.333C927.333 498.217 926.982 499.065 926.357 499.69C925.732 500.315 924.884 500.667 924 500.667H915.667C914.872 500.667 914.104 500.95 913.5 501.467L904.167 509.467L896.367 501.633C896.055 501.324 895.686 501.08 895.28 500.914C894.874 500.748 894.439 500.664 894 500.667H884C883.116 500.667 882.268 500.315 881.643 499.69C881.018 499.065 880.667 498.217 880.667 497.333V460.667C880.667 459.783 881.018 458.935 881.643 458.31C882.268 457.685 883.116 457.333 884 457.333H924C924.884 457.333 925.732 457.685 926.357 458.31C926.982 458.935 927.333 459.783 927.333 460.667V497.333Z" fill="black"/>
<path d="M984 491.25C978.182 491.252 972.463 492.757 967.398 495.62C962.333 498.483 958.094 502.606 955.091 507.59C952.089 512.574 950.426 518.249 950.263 524.065C950.1 529.881 951.443 535.64 954.162 540.784L951.631 549.643C951.324 550.714 951.31 551.848 951.59 552.927C951.869 554.006 952.432 554.991 953.22 555.779C954.009 556.567 954.993 557.13 956.072 557.41C957.151 557.69 958.285 557.676 959.357 557.369L968.217 554.838C972.746 557.234 977.762 558.567 982.884 558.737C988.005 558.906 993.098 557.907 997.776 555.815C1002.45 553.723 1006.59 550.594 1009.88 546.664C1013.17 542.734 1015.52 538.107 1016.76 533.134C1017.99 528.16 1018.08 522.971 1017.01 517.959C1015.94 512.948 1013.74 508.246 1010.59 504.209C1007.43 500.173 1003.39 496.908 998.788 494.663C994.181 492.417 989.124 491.25 984 491.25V491.25ZM984 551.25C979.286 551.254 974.659 549.986 970.605 547.58C970.166 547.319 969.678 547.15 969.171 547.085C968.664 547.019 968.15 547.057 967.658 547.197L959.46 549.54L961.802 541.342C961.943 540.851 961.981 540.336 961.915 539.829C961.849 539.322 961.681 538.834 961.419 538.395C958.463 533.414 957.237 527.594 957.933 521.844C958.629 516.093 961.207 510.734 965.266 506.601C969.324 502.468 974.636 499.794 980.373 498.994C986.111 498.195 991.951 499.315 996.985 502.181C1002.02 505.047 1005.96 509.497 1008.21 514.839C1010.45 520.18 1010.86 526.113 1009.38 531.713C1007.89 537.313 1004.6 542.265 1000.01 545.799C995.422 549.333 989.793 551.249 984 551.25V551.25ZM997.75 518.75C997.75 519.745 997.355 520.698 996.652 521.402C995.948 522.105 994.995 522.5 994 522.5H974C973.005 522.5 972.052 522.105 971.348 521.402C970.645 520.698 970.25 519.745 970.25 518.75C970.25 517.755 970.645 516.802 971.348 516.098C972.052 515.395 973.005 515 974 515H994C994.995 515 995.948 515.395 996.652 516.098C997.355 516.802 997.75 517.755 997.75 518.75ZM997.75 531.25C997.75 532.245 997.355 533.198 996.652 533.902C995.948 534.605 994.995 535 994 535H974C973.005 535 972.052 534.605 971.348 533.902C970.645 533.198 970.25 532.245 970.25 531.25C970.25 530.255 970.645 529.302 971.348 528.598C972.052 527.895 973.005 527.5 974 527.5H994C994.995 527.5 995.948 527.895 996.652 528.598C997.355 529.302 997.75 530.255 997.75 531.25Z" fill="black"/>
<path d="M942 47.6667H902C899.348 47.6667 896.804 48.7202 894.929 50.5956C893.054 52.471 892 55.0145 892 57.6667V94.3333C892 96.9855 893.054 99.529 894.929 101.404C896.804 103.28 899.348 104.333 902 104.333H910.633L919.633 113.367C919.945 113.676 920.314 113.92 920.72 114.086C921.126 114.252 921.561 114.336 922 114.333C922.794 114.333 923.563 114.05 924.167 113.533L934.9 104.333H942C944.652 104.333 947.196 103.28 949.071 101.404C950.946 99.529 952 96.9855 952 94.3333V57.6667C952 55.0145 950.946 52.471 949.071 50.5956C947.196 48.7202 944.652 47.6667 942 47.6667ZM945.333 94.3333C945.333 95.2174 944.982 96.0652 944.357 96.6904C943.732 97.3155 942.884 97.6667 942 97.6667H933.667C932.872 97.6666 932.104 97.9503 931.5 98.4667L922.167 106.467L914.367 98.6333C914.055 98.3244 913.686 98.08 913.28 97.9141C912.874 97.7482 912.439 97.6641 912 97.6667H902C901.116 97.6667 900.268 97.3155 899.643 96.6904C899.018 96.0652 898.667 95.2174 898.667 94.3333V57.6667C898.667 56.7826 899.018 55.9348 899.643 55.3096C900.268 54.6845 901.116 54.3333 902 54.3333H942C942.884 54.3333 943.732 54.6845 944.357 55.3096C944.982 55.9348 945.333 56.7826 945.333 57.6667V94.3333Z" fill="black"/>
<path d="M200.905 184.076V201.211C200.905 203.53 202.691 203.202 203.286 202.726C204.017 202.139 223.762 184.076 223.762 184.076H248.524C253.23 184.076 254.238 183.069 254.238 178.364V139.065C254.238 133.543 253.286 132.667 248.524 132.667H187.571C182.886 132.667 181.857 133.619 181.857 138.379V178.364C181.857 182.99 182.657 184.076 187.571 184.076H200.905ZM205.21 162.179C205.21 165.074 202.848 167.434 199.952 167.434C197.057 167.434 194.695 165.074 194.695 162.179C194.695 159.286 197.057 156.924 199.952 156.924C202.848 156.924 205.21 159.288 205.21 162.179ZM222.352 162.179C222.352 165.074 219.99 167.434 217.095 167.434C215.702 167.432 214.367 166.877 213.381 165.892C212.396 164.907 211.841 163.572 211.838 162.179C211.841 160.786 212.396 159.451 213.381 158.466C214.367 157.481 215.702 156.926 217.095 156.924C219.99 156.924 222.352 159.288 222.352 162.179ZM239.495 162.179C239.495 165.074 237.133 167.434 234.238 167.434C231.343 167.434 228.981 165.074 228.981 162.179C228.981 159.286 231.343 156.924 234.238 156.924C237.133 156.924 239.495 159.288 239.495 162.179Z" fill="black"/>
<path d="M30.9048 99.0762V116.211C30.9048 118.53 32.6914 118.202 33.2857 117.726C34.0171 117.139 53.7619 99.0762 53.7619 99.0762H78.5238C83.2305 99.0762 84.2381 98.0686 84.2381 93.3638V54.0648C84.2381 48.5428 83.2857 47.6667 78.5238 47.6667H17.5714C12.8857 47.6667 11.8571 48.619 11.8571 53.379V93.3638C11.8571 97.9905 12.6571 99.0762 17.5714 99.0762H30.9048ZM35.2095 77.179C35.2095 80.0743 32.8476 82.4343 29.9524 82.4343C27.0571 82.4343 24.6952 80.0743 24.6952 77.179C24.6952 74.2857 27.0571 71.9238 29.9524 71.9238C32.8476 71.9238 35.2095 74.2876 35.2095 77.179ZM52.3524 77.179C52.3524 80.0743 49.9905 82.4343 47.0952 82.4343C45.7021 82.4318 44.3666 81.8773 43.3813 80.8924C42.396 79.9074 41.8411 78.5722 41.8381 77.179C41.8411 75.7859 42.396 74.4506 43.3813 73.4657C44.3666 72.4807 45.7021 71.9263 47.0952 71.9238C49.9905 71.9238 52.3524 74.2876 52.3524 77.179ZM69.4952 77.179C69.4952 80.0743 67.1333 82.4343 64.2381 82.4343C61.3429 82.4343 58.981 80.0743 58.981 77.179C58.981 74.2857 61.3429 71.9238 64.2381 71.9238C67.1333 71.9238 69.4952 74.2876 69.4952 77.179Z" fill="black"/>
<path d="M947.905 207.076V224.211C947.905 226.53 949.691 226.202 950.286 225.726C951.017 225.139 970.762 207.076 970.762 207.076H995.524C1000.23 207.076 1001.24 206.069 1001.24 201.364V162.065C1001.24 156.543 1000.29 155.667 995.524 155.667H934.571C929.886 155.667 928.857 156.619 928.857 161.379V201.364C928.857 205.99 929.657 207.076 934.571 207.076H947.905ZM952.209 185.179C952.209 188.074 949.848 190.434 946.952 190.434C944.057 190.434 941.695 188.074 941.695 185.179C941.695 182.286 944.057 179.924 946.952 179.924C949.848 179.924 952.209 182.288 952.209 185.179ZM969.352 185.179C969.352 188.074 966.99 190.434 964.095 190.434C962.702 190.432 961.367 189.877 960.381 188.892C959.396 187.907 958.841 186.572 958.838 185.179C958.841 183.786 959.396 182.451 960.381 181.466C961.367 180.481 962.702 179.926 964.095 179.924C966.99 179.924 969.352 182.288 969.352 185.179ZM986.495 185.179C986.495 188.074 984.133 190.434 981.238 190.434C978.343 190.434 975.981 188.074 975.981 185.179C975.981 182.286 978.343 179.924 981.238 179.924C984.133 179.924 986.495 182.288 986.495 185.179Z" fill="black"/>
<path d="M919.905 625.076V642.211C919.905 644.53 921.691 644.202 922.286 643.726C923.017 643.139 942.762 625.076 942.762 625.076H967.524C972.23 625.076 973.238 624.069 973.238 619.364V580.065C973.238 574.543 972.286 573.667 967.524 573.667H906.571C901.886 573.667 900.857 574.619 900.857 579.379V619.364C900.857 623.99 901.657 625.076 906.571 625.076H919.905ZM924.209 603.179C924.209 606.074 921.848 608.434 918.952 608.434C916.057 608.434 913.695 606.074 913.695 603.179C913.695 600.286 916.057 597.924 918.952 597.924C921.848 597.924 924.209 600.288 924.209 603.179ZM941.352 603.179C941.352 606.074 938.99 608.434 936.095 608.434C934.702 608.432 933.367 607.877 932.381 606.892C931.396 605.907 930.841 604.572 930.838 603.179C930.841 601.786 931.396 600.451 932.381 599.466C933.367 598.481 934.702 597.926 936.095 597.924C938.99 597.924 941.352 600.288 941.352 603.179ZM958.495 603.179C958.495 606.074 956.133 608.434 953.238 608.434C950.343 608.434 947.981 606.074 947.981 603.179C947.981 600.286 950.343 597.924 953.238 597.924C956.133 597.924 958.495 600.288 958.495 603.179Z" fill="black"/>
<path d="M784.905 74.0762V91.2115C784.905 93.5295 786.691 93.2019 787.286 92.7257C788.017 92.1391 807.762 74.0762 807.762 74.0762H832.524C837.23 74.0762 838.238 73.0686 838.238 68.3638V29.0648C838.238 23.5429 837.286 22.6667 832.524 22.6667H771.571C766.886 22.6667 765.857 23.6191 765.857 28.3791V68.3638C765.857 72.9905 766.657 74.0762 771.571 74.0762H784.905ZM789.209 52.1791C789.209 55.0743 786.848 57.4343 783.952 57.4343C781.057 57.4343 778.695 55.0743 778.695 52.1791C778.695 49.2857 781.057 46.9238 783.952 46.9238C786.848 46.9238 789.209 49.2876 789.209 52.1791ZM806.352 52.1791C806.352 55.0743 803.99 57.4343 801.095 57.4343C799.702 57.4318 798.367 56.8774 797.381 55.8924C796.396 54.9075 795.841 53.5722 795.838 52.1791C795.841 50.7859 796.396 49.4507 797.381 48.4657C798.367 47.4808 799.702 46.9263 801.095 46.9238C803.99 46.9238 806.352 49.2876 806.352 52.1791ZM823.495 52.1791C823.495 55.0743 821.133 57.4343 818.238 57.4343C815.343 57.4343 812.981 55.0743 812.981 52.1791C812.981 49.2857 815.343 46.9238 818.238 46.9238C821.133 46.9238 823.495 49.2876 823.495 52.1791Z" fill="black"/>
<path fill-rule="evenodd" clip-rule="evenodd" d="M-1 428C-1 417.391 3.21427 407.217 10.7157 399.716C18.2172 392.214 28.3913 388 39 388C49.6087 388 59.7828 392.214 67.2843 399.716C74.7857 407.217 79 417.391 79 428V468H39C28.3913 468 18.2172 463.786 10.7157 456.284C3.21427 448.783 -1 438.609 -1 428H-1ZM20.3333 430.667H25.6667V425.333H20.3333V430.667ZM57.6667 430.667H52.3333V425.333H57.6667V430.667ZM36.3333 430.667H41.6667V425.333H36.3333V430.667Z" fill="black"/>
<path fill-rule="evenodd" clip-rule="evenodd" d="M612 74C612 63.3913 616.214 53.2172 623.716 45.7157C631.217 38.2143 641.391 34 652 34C662.609 34 672.783 38.2143 680.284 45.7157C687.786 53.2172 692 63.3913 692 74V114H652C641.391 114 631.217 109.786 623.716 102.284C616.214 94.7828 612 84.6087 612 74V74ZM633.333 76.6667H638.667V71.3333H633.333V76.6667ZM670.667 76.6667H665.333V71.3333H670.667V76.6667ZM649.333 76.6667H654.667V71.3333H649.333V76.6667Z" fill="black"/>
<path fill-rule="evenodd" clip-rule="evenodd" d="M303 48C303 37.3913 307.214 27.2172 314.716 19.7157C322.217 12.2143 332.391 8 343 8C353.609 8 363.783 12.2143 371.284 19.7157C378.786 27.2172 383 37.3913 383 48V88H343C332.391 88 322.217 83.7857 314.716 76.2843C307.214 68.7828 303 58.6087 303 48V48ZM324.333 50.6667H329.667V45.3333H324.333V50.6667ZM361.667 50.6667H356.333V45.3333H361.667V50.6667ZM340.333 50.6667H345.667V45.3333H340.333V50.6667Z" fill="black"/>
<path fill-rule="evenodd" clip-rule="evenodd" d="M886 704C886 693.391 890.214 683.217 897.716 675.716C905.217 668.214 915.391 664 926 664C936.609 664 946.783 668.214 954.284 675.716C961.786 683.217 966 693.391 966 704V744H926C915.391 744 905.217 739.786 897.716 732.284C890.214 724.783 886 714.609 886 704V704ZM907.333 706.667H912.667V701.333H907.333V706.667ZM944.667 706.667H939.333V701.333H944.667V706.667ZM923.333 706.667H928.667V701.333H923.333V706.667Z" fill="black"/>
<path d="M254.497 400.7C253.697 410.5 245.397 418.1 235.497 418H224.997L204.997 431V418L224.997 405H235.497C238.597 405.1 241.197 402.8 241.597 399.7C242.197 389.7 242.197 379.7 241.397 369.7C241.197 366.9 238.897 364.8 236.197 364.6C229.397 364.3 222.197 364 214.997 364C207.797 364 200.597 364.2 193.797 364.7C190.997 364.9 188.797 367 188.597 369.8C187.897 379.8 187.797 389.8 188.397 399.8C188.697 402.9 191.397 405.1 194.497 405H204.997V418H194.497C189.726 418.063 185.11 416.311 181.583 413.099C178.056 409.887 175.88 405.455 175.497 400.7C174.797 390 174.897 379.4 175.697 368.7C176.063 364.263 178.012 360.105 181.187 356.985C184.363 353.864 188.554 351.989 192.997 351.7C199.997 351.2 207.497 351 214.997 351C222.497 351 229.997 351.2 237.097 351.8C241.539 352.089 245.731 353.964 248.906 357.085C252.082 360.205 254.03 364.363 254.397 368.8C255.097 379.4 255.197 390.1 254.497 400.7V400.7Z" fill="black"/>
<path d="M531.497 57.7C530.697 67.5 522.397 75.1 512.497 75H501.997L481.997 88V75L501.997 62H512.497C515.597 62.1 518.197 59.8 518.597 56.7C519.197 46.7 519.197 36.7 518.397 26.7C518.197 23.9 515.897 21.8 513.197 21.6C506.397 21.3 499.197 21 491.997 21C484.797 21 477.597 21.2 470.797 21.7C467.997 21.9 465.797 24 465.597 26.8C464.897 36.8 464.797 46.8 465.397 56.8C465.697 59.9 468.397 62.1 471.497 62H481.997V75H471.497C466.726 75.0628 462.111 73.3109 458.583 70.0991C455.056 66.8872 452.88 62.4552 452.497 57.7C451.797 47 451.897 36.4 452.697 25.7C453.063 21.2629 455.012 17.1052 458.187 13.9847C461.363 10.8642 465.554 8.98864 469.997 8.7C476.997 8.2 484.497 8 491.997 8C499.497 8 506.997 8.2 514.097 8.8C518.539 9.08864 522.731 10.9642 525.906 14.0847C529.082 17.2052 531.03 21.3629 531.397 25.8C532.097 36.4 532.197 47.1 531.497 57.7V57.7Z" fill="black"/>
<path d="M379.497 375.7C378.697 385.5 370.397 393.1 360.497 393H349.997L329.997 406V393L349.997 380H360.497C363.597 380.1 366.197 377.8 366.597 374.7C367.197 364.7 367.197 354.7 366.397 344.7C366.197 341.9 363.897 339.8 361.197 339.6C354.397 339.3 347.197 339 339.997 339C332.797 339 325.597 339.2 318.797 339.7C315.997 339.9 313.797 342 313.597 344.8C312.897 354.8 312.797 364.8 313.397 374.8C313.697 377.9 316.397 380.1 319.497 380H329.997V393H319.497C314.726 393.063 310.11 391.311 306.583 388.099C303.056 384.887 300.88 380.455 300.497 375.7C299.797 365 299.897 354.4 300.697 343.7C301.063 339.263 303.012 335.105 306.187 331.985C309.363 328.864 313.554 326.989 317.997 326.7C324.997 326.2 332.497 326 339.997 326C347.497 326 354.997 326.2 362.097 326.8C366.539 327.089 370.731 328.964 373.906 332.085C377.082 335.205 379.03 339.363 379.397 343.8C380.097 354.4 380.197 365.1 379.497 375.7V375.7Z" fill="black"/>
<path fill-rule="evenodd" clip-rule="evenodd" d="M788.505 183.635L793.76 163.645H786.495C780.295 163.645 775 158.72 775 152.36V120.515C775 114.165 780.055 109 786.26 109H843.74C849.945 109 855 114.165 855 120.515V152.36C855 158.715 850.185 163.645 843.985 163.645H814.915L788.505 183.635V183.635ZM779.795 121.565V151.825C779.795 156.225 783.31 159.085 787.625 159.085H799.11L795.26 173.43L812.67 159.08H842.57C846.895 159.08 850.41 156.225 850.41 151.825V121.565C850.41 117.17 846.895 113.59 842.57 113.59H787.625C783.31 113.59 779.795 117.17 779.795 121.565V121.565Z" fill="black"/>
<path fill-rule="evenodd" clip-rule="evenodd" d="M838.125 153.73H791.72C786.74 153.73 785.245 151.635 785.245 146.81V126.34C785.245 121.525 787.05 119.21 792.03 119.21H838.125C843.115 119.21 844.695 121.995 844.695 126.805V146.655C844.69 151.48 843.115 153.73 838.125 153.73V153.73Z" fill="black"/>
<path fill-rule="evenodd" clip-rule="evenodd" d="M195.505 532.635L200.76 512.645H193.495C187.295 512.645 182 507.72 182 501.36V469.515C182 463.165 187.055 458 193.26 458H250.74C256.945 458 262 463.165 262 469.515V501.36C262 507.715 257.185 512.645 250.985 512.645H221.915L195.505 532.635V532.635ZM186.795 470.565V500.825C186.795 505.225 190.31 508.085 194.625 508.085H206.11L202.26 522.43L219.67 508.08H249.57C253.895 508.08 257.41 505.225 257.41 500.825V470.565C257.41 466.17 253.895 462.59 249.57 462.59H194.625C190.31 462.59 186.795 466.17 186.795 470.565V470.565Z" fill="black"/>
<path fill-rule="evenodd" clip-rule="evenodd" d="M245.125 502.73H198.72C193.74 502.73 192.245 500.635 192.245 495.81V475.34C192.245 470.525 194.05 468.21 199.03 468.21H245.125C250.115 468.21 251.695 470.995 251.695 475.805V495.655C251.69 500.48 250.115 502.73 245.125 502.73V502.73Z" fill="black"/>
<path fill-rule="evenodd" clip-rule="evenodd" d="M494.505 335.635L499.76 315.645H492.495C486.295 315.645 481 310.72 481 304.36V272.515C481 266.165 486.055 261 492.26 261H549.74C555.945 261 561 266.165 561 272.515V304.36C561 310.715 556.185 315.645 549.985 315.645H520.915L494.505 335.635V335.635ZM485.795 273.565V303.825C485.795 308.225 489.31 311.085 493.625 311.085H505.11L501.26 325.43L518.67 311.08H548.57C552.895 311.08 556.41 308.225 556.41 303.825V273.565C556.41 269.17 552.895 265.59 548.57 265.59H493.625C489.31 265.59 485.795 269.17 485.795 273.565V273.565Z" fill="black"/>
<path fill-rule="evenodd" clip-rule="evenodd" d="M544.125 305.73H497.72C492.74 305.73 491.245 303.635 491.245 298.81V278.34C491.245 273.525 493.05 271.21 498.03 271.21H544.125C549.115 271.21 550.695 273.995 550.695 278.805V298.655C550.69 303.48 549.115 305.73 544.125 305.73V305.73Z" fill="black"/>
<path fill-rule="evenodd" clip-rule="evenodd" d="M41.505 747.635L46.76 727.645H39.495C33.295 727.645 28 722.72 28 716.36V684.515C28 678.165 33.055 673 39.26 673H96.74C102.945 673 108 678.165 108 684.515V716.36C108 722.715 103.185 727.645 96.985 727.645H67.915L41.505 747.635V747.635ZM32.795 685.565V715.825C32.795 720.225 36.31 723.085 40.625 723.085H52.11L48.26 737.43L65.67 723.08H95.57C99.895 723.08 103.41 720.225 103.41 715.825V685.565C103.41 681.17 99.895 677.59 95.57 677.59H40.625C36.31 677.59 32.795 681.17 32.795 685.565V685.565Z" fill="black"/>
<path fill-rule="evenodd" clip-rule="evenodd" d="M91.125 717.73H44.72C39.74 717.73 38.245 715.635 38.245 710.81V690.34C38.245 685.525 40.05 683.21 45.03 683.21H91.125C96.115 683.21 97.695 685.995 97.695 690.805V710.655C97.69 715.48 96.115 717.73 91.125 717.73V717.73Z" fill="black"/>
<path fill-rule="evenodd" clip-rule="evenodd" d="M102.505 167.635L107.76 147.645H100.495C94.295 147.645 89 142.72 89 136.36V104.515C89 98.165 94.055 93 100.26 93H157.74C163.945 93 169 98.165 169 104.515V136.36C169 142.715 164.185 147.645 157.985 147.645H128.915L102.505 167.635V167.635ZM93.795 105.565V135.825C93.795 140.225 97.31 143.085 101.625 143.085H113.11L109.26 157.43L126.67 143.08H156.57C160.895 143.08 164.41 140.225 164.41 135.825V105.565C164.41 101.17 160.895 97.59 156.57 97.59H101.625C97.31 97.59 93.795 101.17 93.795 105.565V105.565Z" fill="black"/>
<path fill-rule="evenodd" clip-rule="evenodd" d="M152.125 137.73H105.72C100.74 137.73 99.245 135.635 99.245 130.81V110.34C99.245 105.525 101.05 103.21 106.03 103.21H152.125C157.115 103.21 158.695 105.995 158.695 110.805V130.655C158.69 135.48 157.115 137.73 152.125 137.73V137.73Z" fill="black"/>
<path d="M52 476.25C46.1818 476.252 40.4629 477.757 35.3978 480.62C30.3328 483.483 26.0936 487.606 23.0915 492.59C20.0893 497.574 18.4262 503.249 18.2633 509.065C18.1004 514.881 19.4434 520.64 22.1619 525.784L19.6306 534.643C19.3244 535.714 19.3103 536.848 19.5898 537.927C19.8694 539.006 20.4324 539.991 21.2205 540.779C22.0086 541.567 22.9931 542.13 24.0721 542.41C25.151 542.69 26.2852 542.676 27.3569 542.369L36.2166 539.838C40.7463 542.234 45.7621 543.567 50.8836 543.737C56.0052 543.906 61.098 542.907 65.776 540.815C70.454 538.723 74.5943 535.594 77.883 531.664C81.1717 527.734 83.5224 523.107 84.7569 518.134C85.9913 513.16 86.0772 507.971 85.0079 502.959C83.9386 497.948 81.7422 493.246 78.5853 489.209C75.4284 485.173 71.3939 481.908 66.7876 479.663C62.1814 477.417 57.1244 476.25 52 476.25V476.25ZM52 536.25C47.2864 536.254 42.659 534.986 38.6053 532.58C38.1661 532.319 37.6781 532.15 37.1713 532.085C36.6645 532.019 36.1495 532.057 35.6581 532.197L27.4603 534.54L29.8022 526.342C29.9426 525.851 29.981 525.336 29.9152 524.829C29.8493 524.322 29.6806 523.834 29.4194 523.395C26.4631 518.414 25.2374 512.594 25.9331 506.844C26.6287 501.093 29.2068 495.734 33.2656 491.601C37.3245 487.468 42.6362 484.794 48.3734 483.994C54.1106 483.195 59.9511 484.315 64.9851 487.181C70.0191 490.047 73.964 494.497 76.2052 499.839C78.4464 505.18 78.8582 511.113 77.3763 516.713C75.8944 522.313 72.6021 527.265 68.0122 530.799C63.4223 534.333 57.7926 536.249 52 536.25V536.25ZM65.75 503.75C65.75 504.745 65.3549 505.698 64.6516 506.402C63.9484 507.105 62.9946 507.5 62 507.5H42C41.0054 507.5 40.0516 507.105 39.3484 506.402C38.6451 505.698 38.25 504.745 38.25 503.75C38.25 502.755 38.6451 501.802 39.3484 501.098C40.0516 500.395 41.0054 500 42 500H62C62.9946 500 63.9484 500.395 64.6516 501.098C65.3549 501.802 65.75 502.755 65.75 503.75ZM65.75 516.25C65.75 517.245 65.3549 518.198 64.6516 518.902C63.9484 519.605 62.9946 520 62 520H42C41.0054 520 40.0516 519.605 39.3484 518.902C38.6451 518.198 38.25 517.245 38.25 516.25C38.25 515.255 38.6451 514.302 39.3484 513.598C40.0516 512.895 41.0054 512.5 42 512.5H62C62.9946 512.5 63.9484 512.895 64.6516 513.598C65.3549 514.302 65.75 515.255 65.75 516.25Z" fill="black"/>
<path d="M741 227.25C735.182 227.252 729.463 228.757 724.398 231.62C719.333 234.483 715.094 238.606 712.091 243.59C709.089 248.574 707.426 254.249 707.263 260.065C707.1 265.881 708.443 271.64 711.162 276.784L708.631 285.643C708.324 286.714 708.31 287.848 708.59 288.927C708.869 290.006 709.432 290.991 710.22 291.779C711.009 292.567 711.993 293.13 713.072 293.41C714.151 293.69 715.285 293.676 716.357 293.369L725.217 290.838C729.746 293.234 734.762 294.567 739.884 294.737C745.005 294.906 750.098 293.907 754.776 291.815C759.454 289.723 763.594 286.594 766.883 282.664C770.172 278.734 772.522 274.107 773.757 269.134C774.991 264.16 775.077 258.971 774.008 253.959C772.939 248.948 770.742 244.246 767.585 240.209C764.428 236.173 760.394 232.908 755.788 230.663C751.181 228.417 746.124 227.25 741 227.25V227.25ZM741 287.25C736.286 287.254 731.659 285.986 727.605 283.58C727.166 283.319 726.678 283.15 726.171 283.085C725.664 283.019 725.15 283.057 724.658 283.197L716.46 285.54L718.802 277.342C718.943 276.851 718.981 276.336 718.915 275.829C718.849 275.322 718.681 274.834 718.419 274.395C715.463 269.414 714.237 263.594 714.933 257.844C715.629 252.093 718.207 246.734 722.266 242.601C726.324 238.468 731.636 235.794 737.373 234.994C743.111 234.195 748.951 235.315 753.985 238.181C759.019 241.047 762.964 245.497 765.205 250.839C767.446 256.18 767.858 262.113 766.376 267.713C764.894 273.313 761.602 278.265 757.012 281.799C752.422 285.333 746.793 287.249 741 287.25V287.25ZM754.75 254.75C754.75 255.745 754.355 256.698 753.652 257.402C752.948 258.105 751.995 258.5 751 258.5H731C730.005 258.5 729.052 258.105 728.348 257.402C727.645 256.698 727.25 255.745 727.25 254.75C727.25 253.755 727.645 252.802 728.348 252.098C729.052 251.395 730.005 251 731 251H751C751.995 251 752.948 251.395 753.652 252.098C754.355 252.802 754.75 253.755 754.75 254.75ZM754.75 267.25C754.75 268.245 754.355 269.198 753.652 269.902C752.948 270.605 751.995 271 751 271H731C730.005 271 729.052 270.605 728.348 269.902C727.645 269.198 727.25 268.245 727.25 267.25C727.25 266.255 727.645 265.302 728.348 264.598C729.052 263.895 730.005 263.5 731 263.5H751C751.995 263.5 752.948 263.895 753.652 264.598C754.355 265.302 754.75 266.255 754.75 267.25Z" fill="black"/>
<path d="M590 679.25C584.182 679.252 578.463 680.757 573.398 683.62C568.333 686.483 564.094 690.606 561.091 695.59C558.089 700.574 556.426 706.249 556.263 712.065C556.1 717.881 557.443 723.64 560.162 728.784L557.631 737.643C557.324 738.714 557.31 739.848 557.59 740.927C557.869 742.006 558.432 742.991 559.22 743.779C560.009 744.567 560.993 745.13 562.072 745.41C563.151 745.69 564.285 745.676 565.357 745.369L574.217 742.838C578.746 745.234 583.762 746.567 588.884 746.737C594.005 746.906 599.098 745.907 603.776 743.815C608.454 741.723 612.594 738.594 615.883 734.664C619.172 730.734 621.522 726.107 622.757 721.134C623.991 716.16 624.077 710.971 623.008 705.959C621.939 700.948 619.742 696.246 616.585 692.209C613.428 688.173 609.394 684.908 604.788 682.663C600.181 680.417 595.124 679.25 590 679.25V679.25ZM590 739.25C585.286 739.254 580.659 737.986 576.605 735.58C576.166 735.319 575.678 735.15 575.171 735.085C574.664 735.019 574.15 735.057 573.658 735.197L565.46 737.54L567.802 729.342C567.943 728.851 567.981 728.336 567.915 727.829C567.849 727.322 567.681 726.834 567.419 726.395C564.463 721.414 563.237 715.594 563.933 709.844C564.629 704.093 567.207 698.734 571.266 694.601C575.324 690.468 580.636 687.794 586.373 686.994C592.111 686.195 597.951 687.315 602.985 690.181C608.019 693.047 611.964 697.497 614.205 702.839C616.446 708.18 616.858 714.113 615.376 719.713C613.894 725.313 610.602 730.265 606.012 733.799C601.422 737.333 595.793 739.249 590 739.25V739.25ZM603.75 706.75C603.75 707.745 603.355 708.698 602.652 709.402C601.948 710.105 600.995 710.5 600 710.5H580C579.005 710.5 578.052 710.105 577.348 709.402C576.645 708.698 576.25 707.745 576.25 706.75C576.25 705.755 576.645 704.802 577.348 704.098C578.052 703.395 579.005 703 580 703H600C600.995 703 601.948 703.395 602.652 704.098C603.355 704.802 603.75 705.755 603.75 706.75ZM603.75 719.25C603.75 720.245 603.355 721.198 602.652 721.902C601.948 722.605 600.995 723 600 723H580C579.005 723 578.052 722.605 577.348 721.902C576.645 721.198 576.25 720.245 576.25 719.25C576.25 718.255 576.645 717.302 577.348 716.598C578.052 715.895 579.005 715.5 580 715.5H600C600.995 715.5 601.948 715.895 602.652 716.598C603.355 717.302 603.75 718.255 603.75 719.25Z" fill="black"/>
</g>
<defs>
<linearGradient id="paint0_linear" x1="512" y1="0" x2="512" y2="768" gradientUnits="userSpaceOnUse">
<stop stop-opacity="0.83"/>
<stop offset="1" stop-color="#070000" stop-opacity="0.82"/>
</linearGradient>
<clipPath id="clip0">
<rect width="1024" height="768" fill="white"/>
</clipPath>
</defs>
</svg>
